<?xml version="1.0" encoding="UTF-8"?>
<svg xmlns="http://www.w3.org/2000/svg" viewBox="0 0 420 420" aria-hidden="true">
  <defs>
    <radialGradient id="fd-fade" cx="50%" cy="55%" r="58%">
      <stop offset="0%" stop-color="#fff" stop-opacity="1" />
      <stop offset="70%" stop-color="#fff" stop-opacity="0.6" />
      <stop offset="100%" stop-color="#fff" stop-opacity="0" />
    </radialGradient>
    <mask id="fd-mask">
      <rect width="420" height="420" fill="url(#fd-fade)" />
    </mask>

    <linearGradient id="altiplano-grad" x1="0%" y1="0%" x2="100%" y2="100%">
      <stop offset="0%" stop-color="rgba(200,150,12,0.18)" />
      <stop offset="100%" stop-color="rgba(200,150,12,0.06)" />
    </linearGradient>
    <linearGradient id="valles-grad" x1="0%" y1="0%" x2="100%" y2="100%">
      <stop offset="0%" stop-color="rgba(15,110,110,0.18)" />
      <stop offset="100%" stop-color="rgba(15,110,110,0.05)" />
    </linearGradient>
    <linearGradient id="oriente-grad" x1="0%" y1="0%" x2="100%" y2="100%">
      <stop offset="0%" stop-color="rgba(58,94,58,0.20)" />
      <stop offset="100%" stop-color="rgba(58,94,58,0.05)" />
    </linearGradient>

    <radialGradient id="lpaz-halo-grad" cx="50%" cy="50%" r="50%">
      <stop offset="0%" stop-color="rgba(200,150,12,0.55)" />
      <stop offset="60%" stop-color="rgba(200,150,12,0.15)" />
      <stop offset="100%" stop-color="rgba(200,150,12,0)" />
    </radialGradient>

    <radialGradient id="city-glow" cx="50%" cy="50%" r="50%">
      <stop offset="0%" stop-color="rgba(255,255,255,0.95)" />
      <stop offset="40%" stop-color="rgba(200,150,12,0.55)" />
      <stop offset="100%" stop-color="rgba(200,150,12,0)" />
    </radialGradient>

    <filter id="lpaz-glow" x="-100%" y="-100%" width="300%" height="300%">
      <feGaussianBlur stdDeviation="2.5" result="blur" />
      <feMerge>
        <feMergeNode in="blur" />
        <feMergeNode in="SourceGraphic" />
      </feMerge>
    </filter>

    <filter id="soft-shadow" x="-50%" y="-50%" width="200%" height="200%">
      <feGaussianBlur stdDeviation="1.2" result="blur" />
      <feOffset dx="0" dy="1" in="blur" result="off" />
      <feMerge>
        <feMergeNode in="off" />
        <feMergeNode in="SourceGraphic" />
      </feMerge>
    </filter>

    <pattern id="hatch" patternUnits="userSpaceOnUse" width="4" height="4" patternTransform="rotate(45)">
      <line x1="0" y1="0" x2="0" y2="4" stroke="rgba(200,150,12,0.18)" stroke-width="0.4" />
    </pattern>

    <style type="text/css"><![CDATA[
      @keyframes lgc-lpaz-pulse-outer {
        0%   { transform: scale(0.5); opacity: 0.85; }
        100% { transform: scale(3.2); opacity: 0; }
      }
      @keyframes lgc-lpaz-pulse-mid {
        0%   { transform: scale(0.5); opacity: 0.95; }
        100% { transform: scale(2.2); opacity: 0; }
      }
      @keyframes lgc-lpaz-pulse-inner {
        0%   { transform: scale(0.7); opacity: 0.9; }
        100% { transform: scale(1.8); opacity: 0; }
      }
      @keyframes lgc-lpaz-dot-glow {
        0%, 100% { opacity: 1; filter: drop-shadow(0 0 2px rgba(200,150,12,0.9)); }
        50%      { opacity: 0.7; filter: drop-shadow(0 0 5px rgba(200,150,12,1)); }
      }
      @keyframes lgc-scan {
        0%   { transform: translateY(0); opacity: 0.25; }
        50%  { opacity: 0.55; }
        100% { transform: translateY(80px); opacity: 0.25; }
      }
      @keyframes lgc-orbit {
        0%   { transform: rotate(0deg); }
        100% { transform: rotate(360deg); }
      }
      .lpaz-pulse-outer {
        transform-origin: 155px 158px;
        transform-box: fill-box;
        animation: lgc-lpaz-pulse-outer 3s ease-out infinite;
      }
      .lpaz-pulse-mid {
        transform-origin: 155px 158px;
        transform-box: fill-box;
        animation: lgc-lpaz-pulse-mid 3s ease-out infinite 0.6s;
      }
      .lpaz-pulse-inner {
        transform-origin: 155px 158px;
        transform-box: fill-box;
        animation: lgc-lpaz-pulse-inner 2s ease-out infinite 1.1s;
      }
      .lpaz-dot {
        animation: lgc-lpaz-dot-glow 2.5s ease-in-out infinite 1s;
      }
      .scan-line {
        animation: lgc-scan 4s ease-in-out infinite;
      }
      .compass-outer {
        transform-origin: 380px 80px;
        transform-box: fill-box;
        animation: lgc-orbit 60s linear infinite;
      }
    ]]></style>
  </defs>

  <g mask="url(#fd-mask)">

    <g transform="translate(82,28) scale(0.19)">

      <g transform="translate(200,200)">
        <path
          d="M108.6 576.1l0.1-5-0.2-2.4-0.7-2-1-1.3-1.3-1.3-2.6-2.2-1.1-0.4-3.4-0.4-0.1 0 1.1-1.8 1.1-3.8 0.7-1.5 0.3-0.1 1.1-0.2 0.4-0.1 3.6-3.3 2-1.4 1.8-0.7 1.9-0.3 1.7-0.7 1.5-1.7 0.3-1-0.3-0.5-0.5-0.2-0.2-0.4 0.2-0.7 0.4-0.4 2.8-1.7 0.8-0.9 1.7-3.8 6.7-7.2 0.9-1.5 1.3-3.7 0.6-1 1-0.6 2.4-0.2 1.2-0.3 3.8-2 1.1-0.9 1.1-1.4 0.8-1.1-1.7-2.4-0.4-1.2 0.2-2.1-0.1-4 0.2-1.4 0.6-1.2 1.7-2.2 2.2-1.1 7.4-3 1.5-2.3-0.7-1.9-1.5-1-3.5-1.4-2.6-3-1.5-0.9-1.9 0.7-2.1-0.7-0.7-0.1-0.8 0.3-1.2 1-0.8 0.3-1.7 0-1.5-0.6-1.5-0.8-1.2-1.1-2.3-2.9-1.5-3.7-2.7-7.1-2.8-7.1-2.8-7-2.9-7.1-0.8-2-0.3-2 0.6-2.1 4.2-6.5 0.4-1.3 0.1-1.4 0.4-1.3 0.8-1.3 0.7-0.3 1.8-0.6 0.5-0.3 0-0.6-0.8-2.1 0.4-1.1 1.1-1.4 1.2-1.1 2.2-0.8 0.9-2.6 1.3-0.1 1.6 0.1 1-0.8 0.1-1.3-1.5-1.5-1.6-2.4-1.1-1-3.9-2.9-1.1-1.1-3.8-5.9-1.1-1-1.4-1.3-0.4-1.2 0.3-1.3 1-2.6 0.2-0.5-0.3-5.6 0.1-1.1 0.6-0.9 1.5-0.9 3.6-1.1 1.1-0.6 0.9-2 0.4-8.7 0.8-1.3 1.3-0.1 1.5 0.3 1.5 0 0.4-0.7-0.2-3.2 0.2-1.1 0.4-0.3 1.1-0.3 0.5-0.3 2.6-3 1.2-0.9 4.3-2.4 1.3-1.3-0.3-1.3-0.9-1.4-0.5-1.2 0-2.6 0.1-1.3 0.3-1.2 1.7-1.2 2.2-0.6 4.4-0.6 1.3-1.3-0.3-2.4-1.6-4.6-0.4-2.3-0.4-1-0.7-1-3.5-2.4-0.9-1.2-0.4-2.2 0-2.4-0.2-2.3-1.2-1.8-0.8-2.6-0.1-0.9 0.2-1.1 0.3-0.8 0-0.8-0.7-1-3.5-2.9-1.4-1.9 0.9-1.6 0.9 0 2 0.3 0.7-0.1 0.6-0.8 0-0.8-0.1-0.8 0.2-0.9 0.5-0.8 1.4-1.5 0.5-0.9 0.6-1.6 0.4-1.7-0.2-1.5 0.7-13.3-0.9-5.3-0.2-2.7 0.5-8-0.1-1-0.8-6.6 0-2.9 0.3-1.6 2.1-1.6 0.7-1.6 0.8-1.3 1.5 0.2 0.8-1.9 1-1.4 1.4-0.9 5.4-1.5 0.5-0.6 1.5-3-0.6-0.8-2.2-0.5-0.6-0.7 0.1-1.1 0.6-1 0.9-0.7 2-1.1 0.9-0.8 0.8-1 0.5-1.1 0.4-1.3 0.4-0.6 0.7-0.3-0.4-0.6-1.6-2.9-6.9-12.2-6.8-12.2-6.9-12.2-6.9-12.2-6.8-12.2-6.9-12.2-6.9-12.1-6.9-12.2-0.2-0.4-0.2-0.4-0.3-0.4-0.2-0.4-0.2-0.4-0.3-0.5-0.2-0.4-0.2-0.4 4.9 0.2 2.6-0.2 4.4-1.1 2.2 0.3 2.2 0.6 2.4 0.4 3.7-0.1 5.2 0.6 2.4 0.5 2.3-0.2 1 0.2 4.9 2.1 0.3 0.1 0.6 0 0.3-0.1 1.5 0 3.1 0.8 1.6 0.2 1.7-0.4 1.8-0.7 1.8-0.3 1.9 0.6 1.2 0.5-1.1 1.6-0.8 1.6-0.4 1.7 0.3 2.8 0.2 0.6 0.5 0.4 1.2 0 9.4-1.9 1.8-1 3.4-2.4 2.9-1 1.1-0.2 1.1 0 1.1 0.2 0.9-0.2 2.1-2 1.2-0.6 3.1-0.3 1.2-0.5 1.3-1 1.3-1.3 1.1-1.4 0.9-1.4 1.7-4 0.9-1.3 3.7-4 2.4-4.3 0.9-1.1 1.5-1.1 2.1-1 1.1-0.4 1.1-0.1 1.8 0.3 7.9-0.4 1 0.2 0.9 0.3 1.3 0.7 2.6 2 1.2 0.6 2.3-0.6 1.1-2 0.6-2.4 0.7-2 0.7-0.7 2-1.7 0.8-1 1.3-2.1 0.8-0.9 1-0.9 1.3-0.4 2.3-1.1 2.7-0.9 1.4-0.9 1.1-1.1 0.9-1.2 0.3-0.8 0-0.5 0.2-0.5 0.7-0.6 0.6-0.2 3-0.1 0.7-0.1 0.7-0.2 0.5-0.4 0.1-0.7-0.4-1.4 0.1-0.6 1-0.5 1.5-0.3 2.7-0.1 1.2 0.2 2.6 0.7 1.1 0 0.8-0.5 0.5-0.7 0.4-0.8 0.5-0.5 0.7-0.2 1.3-0.1 0.7-0.1 3.1-1.8 10.6-10.9 8.7-6.7 1.2-0.7 5.4-2.1 0.7-0.4 0.3-0.5 0.2-0.8 0.2-0.7 0.4-0.5 0.7-0.2 7.8-1.4 4 0.3 1.3-0.2 1.3-0.4 2.8-1.6 1-0.4 6.5-1 1.2-0.4 2-1.4 1.2-0.5 3.6-0.3 0.3 0.1 0.2 0.3 0.3 0.2 0.4 0.1 0.3-0.3 0.4-0.8 0.3-0.2 1-0.2 0.4 0.1 0.8 0.3 1.7 1 0.9 0.2 1.2-0.2 3-1.9 1.2-0.3 1.2-0.1 0.9 0.1 2.7 0.6 0.8 0.1 0.8-0.5 1.1-1.1 0.1 0.5 0.3 0.5 0.3 0.6 0.4 0.2 0.7-0.1 0.2-0.6-0.1-0.7 0.1-0.5 0.6-1.3 0.4-0.3 0.4 0.9 0.1 0.6 0.2 0.5 0.3 0.4 0.6 0.2 2.5-1 1-0.1-0.2 1.6-0.3 0.8 0.3 0.2 0.6-0.1 0.5 0.1 0.2 0 0.7-0.3 0.3 0 0.4 0.2 0.6 0.7 0.3 0.3 2 1.3 0.9 0.5 1.2 0.2 0.8 0 0.3-0.3 0.2-0.5 0.3-0.5 0.1-0.2 0.1-0.6 0.1-0.3 0.3-0.2 0.8-0.1 0.3-0.1 0.7-0.9 0.7-1 0.2-0.6 0.3-1 0.4-0.6 3-2.5 0.9-1 0.6-0.1 1.8 0 1.2 0.4 1.8 1.6 0.9 2.1 0.2 0.2 0.9 3 0.6 0.7 0.9 0.8 0.8 0.9 0.4 1-0.3 1.6-1.4 2.7-0.6 1.5-0.2 2.7 0.3 2.7 0.5 2.6 1.3 3.4 0.2 1.5 0.2 2.9 0.1 0.6 0.7 1.6 0.1 0.7-0.2 0.6-1.1 1.8-0.7 3.2-0.8 1.6-2.5 1.2-0.9 1.3-0.7 1.5-0.3 1.2 0.1 0.5 0.1 0.2 0.3 0.3-1.6 2.8-0.9 0.9-1.6 0.4 0 0.4 0.7 1.2 0.2 0.5-0.1 0.3-0.3 0.6-0.1 0.4 0.1 0.6 0.2 0.7 0.2 0.6 0.2 0.2 0.2 0.7-0.4 3.3 0 1 1.1 1.3 1.2 0.7 0.9 1 0.4 1.9-0.1 1.2-0.5 2.5-1 3.1 0.4 0.8 2.6 0.7 1.1 0.8 1 1.1 0.6 1 0.4 5.7 0.2 0.4 0.3 0.4 0.4 0.5 0 0.8-0.3 0.6-0.4 0.4-0.5 0.4-0.6 0.4-1 1.6-0.1 1.2 0.4 1.2 0.2 1.4-0.5 1.2-2.5 2-1 1.1-0.2 1.7 0.8 1 1.1 0.8 0.6 0.9-0.4 1-0.9 0.6-0.6 0.7 0.1 1.6 0.8 1.3 1.4 1 1.2 0.7 0.6 0.4-0.3 0.9-1.1 1.3-0.4 0.8-0.1 0.7 0.1 0.5 2.2 5.8 1.8 1.9 2.3-0.6 1.6 0.9 0.7 0.6 0.5 0.8 0 0.7-0.5 1.2 0 0.9 0.2 0.9 0.4 0.2 0.4 0 0.8 0.3 1.4 1 0.5 0.6-1.6 0.5-0.2 0.6 0.3 1.6-0.1 0.7-0.6 1-0.1 0.7 0 2.4 0.4 0.9 0.9 1 1.2 0.9 0.8 0.3 0.5-0.7 0.4-3.2 0.3-0.9 0.4-0.5 0.9-0.3 0.2 0.6-0.2 1.6 0.9 0.9 1.2 0.5 1.1 0.6 0.6 2.2 0.8 1.5 0.3 0.7 0.1 0.7-0.1 1.3 0 0.7 0.4 1.4 0.3 0.6 0.7 0.4 0.2 0 0.7 0.3 0.4 0.7 0.1 0.8-0.3 0.7-0.9 1.3-0.1 1.2 0.5 1.1 0.7 0.8 1 0.5 1 0.3 2.8 0.1 1.4 0.3 1.4 0.5 1.4 0.2 1.4-0.6 0.8 0.4 1.2 0.3 1.1 0.4 0.5 1 0.3 1.4 0.8 1.2 2.1 2.3-0.5 0.9 0.3 0.8 0.8 0.3 0.8-0.2 0.1-0.6 0.3-1.7 0.2-0.4 1.1-0.2 0.2 0.4 0.3 1.1 0 0.6-0.4 0.8 0 0.5 0.2 0.3 0.5 0.6 0.2 0.2 0.6 0.7 1.6 1 3.2 1.4 0.8 0.1 1.7 0 0.4 0.1 1.1 0.9 1.3 0.7 0.1-0.2 0-0.2 0.1-0.1 1 0.1 0.3 0.1 1.1 1 0.2 0.5 0.1 0.8-0.1 1.5-0.3 1.4-1.2 2.7 0.2 1.2 0.4 0.3 1.4 0.5 0.6 0.3 0.6 0.7 0.8 1.4 0.5 0.7 0.8 0.9 1.1 0.8 1.2 0.6 1.6 0.2 2.6-0.5 1 0.3 0.7 2.1 0.6 0.2 0.6-0.2 0.4-0.1 0.4-0.3 0.7-0.8 0.7-0.2 1.4-0.2 1.1 0.4 1 0.6 1.8 2 0.7 0.2 0.7-0.7 0.9-1.4 1 1.2 4 0.1 1.4 2 1.3-0.2 2-0.8 0.9 0.3 0.6 0.6 0.7 0.5 1.2 0 0.8-0.7 0.4-0.6 0.4-0.6 2.2-2.8 0.1-0.4 1.1-0.1 2-0.7 0.9-0.1 9.5 1.4 0.2 0.1 3.5 1.9 2.8 2.3 1.1 0.5 1.4 0.3 0.9 0 0.7 0.1 0.7 0.3 0.6 0.5 0.5 0.7 0.1 0.7 0.1 0.6 0.2 0.7 0.6 0.5 0.5 0.2 0.5 0.2 0.2 0.8 0.3 0.4 2.5 1.9 1.4 0.4 0.8 0.3 1.9 1.5 0.8 0.3 4.7 0 0.7-0.2 0.3-0.5 0.6-0.6 1.4-1 0.3 0 0.8 0.1 0.3-0.1 0.3-0.3 0.3-0.7 0.3-0.3 1.8-0.8 0.2-0.2 0.7 0.2 1.3 0.6 2 0.5 0.7 0.9 0.5 2.4 0.2 0.5 0.5 0.3 0.2 0.4-0.5 0.8-0.1 0.4 0.1 0.4 0.2 0.3 1.5 1.2 0.7 0.9 0.3 0.6 0.2 1.5 0.5 1.3 0.8 1 0.8 0.6 0.7 0.3 0.6 0 0.6-0.1 0.6-0.4 0.6-0.2 0.3 0.4 0.2 0.7 3.5 4.5 0.2 0.4 0.3 0.3 0.7 0.2 0.7 0 0.5 0.1 0.3 0.4 0.1 0.6 0.3 1.1 0.9 0.9 1.1 0.8 1.3 0.7 0.1-1.4 0.7-0.3 1.1 0 1.3-0.2 0.8-0.5 0.7-0.6 0.8-0.1 1.3 0.8 0.6 0.5 0.4 0.6 0.3 0.6 0.1 1.6 0.3 0.3 5.7 2.5 4.1-0.1 1.3 0.2 0.9 0.6 1.8 2.2 0.2 0.3 0.1 0.7 0.2 0.1 0.9 0 0.2 0 1.2 0.7 0.5 0.2 3.1 0.4 0.8-0.1 0.8-0.7 1.3 0.6 1.1-0.3 1-0.5 2.4-0.6 0.7-0.1 0.7 0.2 1.8 1.2 0.1-1.6 0.6 0.2 1.5 1.8 0.7 0.3 0.6-0.2 0.4 0.1 0.1 1 0 4.5 0.2 1.2 0.7 0.9 1.4 1.1 2.9 3.2 0.9 0.5 0.1 0.2 1 1.6 0.4 0.3 1.4 0.7 1.2 0.7 3.2 3.2 0.6 0.5 1.3 0.6 0.5 0.5 0.3 0.5 1.3 4.6 0.8 0.6 1.5 0.3 1.3-0.3 1.3-0.4 1.3-0.3 1.3 0.6 1.2-0.8 1.5-0.6 1.7-0.4 4.7-0.4 0.2 0.1 0.3 0 1.8 1.7 0.7 0.4 3.1 0.7 3-0.3 2.8-1.1 4.5-2.3 1 0 1 0.5 2.4 0.4 1.3 0.8 0.8 0.3 0.7 0 1.5-0.4 4.4 0.1 0.6-0.4 0.4-1.3 1-0.7 2.8-0.4 0.2-0.2 0.8-0.5 0.9-0.2 0.4 0.7 0 2.7 1.2 1.4 2.9 0.5 3.2 0.2 2.2 0.5 1.2 1.2 0.5 0.3 4.5 1.9 5 4 4.8 3.8 2.3 1.2 1.5 0.4 0.5 0.2 0.2 0.3 0.4 0.8 0.2 0.3 0.6 0.3 5 1.2 1.2 0.7 0.5 1.2 0.1 1.9 0.4 1.8 0.6 1.8 0.6 1.4 0.6 0.6 1.4 1.2 0.1 0.4-0.3 0.7 0.4 0.4 0.7 0.3 0.4 0.3 0.1 0.6 0 0.4-0.6 1.3-0.8 3.1-0.7 1.5-1.2 1-1.6 0.5-0.4 0.3-0.4 0.9-0.2 1.6-0.1 1.5 0.2 0.9 0.9 1.6 0 1.7-0.2 1.8 0 1.9 0.7 1.2 3.6 3 0.5 1.1 1 4.3 2.2 4.8 0.3 2.9-2 0.7 1.1 2.2 3.2 2.2 0.8 1.5 0.2 4.1 0.3 5.6 0.2 5.6 0.3 5.6 0.2 5.6 0.3 4.4-0.4 0.8-7.5 0.1-12.7 0.1 3.5 3.1 4.5 5.5 7.1 8.6 6.1 7.2 0.9 1.5 0.5 1.7 0.9 10.2 1.2 13.8 0.9 10.1 0.4 7.4 0.5 7.7 1.2 3 2.1 0.6 4.5 0.1 12.6 0.5 12.5 0.4 12.6 0.5 12.5 0.4 12.5 0.5 12.6 0.5 12.5 0.4 12.6 0.5 4.7 0.1 1.5-0.1 1.3-0.7 0.5-0.7 1-1.7 0.4-0.3 2.9 0.1 0.7 0.6 0.3 6.6-0.3 1-1.5 1.3-0.1 1.2 1.3 2.5-0.8 2.5-6.6 7.5-1.1 2.1-0.5 2.3 0.2 3 1.4 5.2 0.2 2.7-0.2 0.5-0.5 1.2-0.2 0.6 0 0.9 0.7 3.4 1.1 2.1 0.4 1.2 0.4 4.8 0.3 1.1 0.7 1.2 0.4 1.5 0.1 6.2 0.3 2.6 1.2 2 2.5 1.4 2.1 0.3 0.6 0.2 0.7 0.4 1.1 1 0.7 0.4 0.5 0.1 1.1 0.2 0.6 0.3 0.7 1 1.1 2.3 1 0.8 0.9 0.2 0.8 0.1 0.7 0.2 0.8 0.6 1.8 2 0.8 0.5 2.3 1 0.8 0.5 2.8 2.4 1.9 0.8 2.5 0.6 2.5 0.2 1.9-0.6 1.5-0.2 1.2 0.1 1.4 0.6 0.9 1 0.7 1.5 0.2 1.7-0.1 1.7 0.1 1.1 0 2.7 0.1 1.2 0.5 1.3 0.7 0.9 0.9 0.8 0.9 0.7 1.1 0.4-0.6 2.2 0.2 0.8 1.2 1.5 1 1.7-0.2 1.2-2 0.2 6.1 10.7 3.4 8.5 2.3 4.2 2.6 1.5 1.3 0 1.1 0.2 0.6 0.6-0.1 1.6-4.5 0-1.2 0.3-0.9 0.8-1 3.4-3.1 9.9-3.1 9.9-3.1 10-3.1 9.9-0.8 2.4 2.7 0.2 0.7 0.6 0.3 1.3 0.3 4.2 0.4 3-3.7 0.3-1.1 0.7-1.5 3.2-2.1 4.3-4.5 9.5-4.5 9.5-2 4.3-0.8 1.8-1.8 3.8-1.8 3.8-0.8 1.7-2.3 4.9 0.5 2 5 4.6 5.3 4.9 6.6 6.1-0.6 0.9-0.8 1.1-0.9 1-1.5 0.7-1.6-0.4-1.1-0.1-0.5 0.3-0.1 0.6-0.5 0.6-0.6 0.4-0.8 0.1-1.7 0.7-2 3-1.7 0.7-0.5 0.2-0.8 1.2-0.3 0.4-0.8 0.5-2.8 1-0.1-1.8 1-3.7 0.1-1.5-0.1-2.9 0.2-1.6-0.2-2.2-1.2-4-0.1-2.2 0.2-2.4-0.2-1-0.7-0.8-2.6-1.6-6.2-3.8-6.1-3.8-6.1-3.9-6.2-3.8-6.1-3.8-6.2-3.8-6.1-3.9-6.1-3.8-3.4-2-1.8-1.4-2-1.4-1.3-0.3-5.4 0-12.4 0.2-12.4 0.2-12.4 0.1-12.4 0.2-5.4 0.1-9.9 2.1-22.3 4.9-22.3 4.8-22.3 4.9-22.3 4.8-1.4 0.3-3.1 0.4-3.1 0.5-1.4 0.2-5.9 0.9-1 0.5-0.6 0.8-1.2 3.4-1.8 5.2-1.9 5.1-1.8 5.2-1.9 5.1-0.9 1.8-0.8 1.8-0.4 0.9-0.5 0.9-0.8 1.8-1.1 1.7-1.1 1.7-1.1 1.7-1.1 1.6-2.9 4.3-3 4.3-2.9 4.3-3 4.2-1.3 2-1.5 2.1-2.4 3.7-0.5 1.8 0 6.4 0.1 6.2 0.1 6.8 0.1 10.3-0.2 4.6-2.2 7.3-2.1 7.3-2.3 7.9-2.4 8.2-2.3 7.5-3 10.3-2.4 8-2.9 9.7-1.7 6.3-1.9 6.7-1.5 3.6-0.6-0.2-0.2-0.5 0-0.7-0.3-0.6-0.8-0.8-2.8-2.1-3.1-1.5-1-1-0.5-1.2 0-2.3-0.4-0.9 0.2-0.5 0-0.7-0.4-2.7-0.2-0.7-1-0.2-2.8-0.6-9.8 0.6-20.7-0.1-20.7-0.2-2.6 0.5-1 0.6-3.1 2.7-0.7-0.3-2.7-2.5-1.4-0.6-6.1-0.4-1.8 0.3-0.9 0.5-0.2 0.2-0.1 0.4-0.6 1.6-0.2 1.4-0.3 0.5-0.5 0.6-0.5 0.2-0.4 0.2-0.4 0.2-0.6 1.2-1 4-2 5.2-0.5 0.8-1.4 0.7-0.5 0.6-4.8 12.8-1.6 2.3-3.4 3.3-1 1.7-2.8 10.7-0.1 5.1-0.6 1.4-1.5 5.5 0.1 0.9-1.2-0.6-0.3-3.3-0.8-1 0.5-1.7-0.2-1.9-0.9-1.6-1.4-0.7-0.7-0.6-1.8-3.8-0.6-0.5-0.6-0.2-0.4-0.4-0.2-1.1 0.1-0.8 0.3-1.4 0-0.7 0.3-0.8 0.5-0.6 0.5-0.7 0.1-1.1-3.6-3.6-1-1.3-0.4-1.7-0.2-0.4-1.2-0.8-0.4-0.5 0.1-0.7 0.5-1.4-0.1-0.8-0.9-0.8-1.4-0.9-0.8-1.3 0.6-1.6 0.9-1.1 0.4-1 0-1.1-0.6-1.5-0.6-0.8-1.7-2.2-0.6-0.4-1.4-0.3-1.4-0.8-1.3-0.9-1.4-0.2-0.5-0.2-0.6 0.1-1.2 0.5-0.6 0.1-2.6-0.6-4.6-2.6-12.4-2.9-11.2 0.1-17.5 0.2-3.5-0.4-4.6-0.6-0.6 0-0.3 0.3-0.3 0.3-0.5 0.3-9.2 1-2-0.6-1.9-1.4-8.4-10-1.5-0.8-6-1.1-0.4-0.4-0.8-3.4-2-2.2-2.8-1.5-5.6-1.8-1.2 0.4-3.1 11.7-0.6 6.6-0.3 1-0.4 0.9-0.2 0.1-0.2-0.2-0.9 0.1-0.5 0.4-0.6 0.5-0.4 0.7-0.2 0.7-1.6 1.2-8.8 2.6-7.6 2.1-0.3 0.3-0.2 0.6-0.2 0.4-0.3 0.1-1.1-0.3-1.3-0.2-0.7-0.2-0.7-0.1-0.9 0.4-1.5 1.3-0.9 1.4-0.5 1.7-0.7 5.3-0.5 1.6-0.9 1-0.1 0.6 0.4 2.1-0.1 0.7-0.7 0.5-7.4 2.4-1.8 0.9-1.3 1.4-0.6 1-0.9 0.6-1 0.2-1.4-0.1-1.2 0 0.6 6.7-0.2 1.5-0.7 1.1-5 4-1.9 2.3-3.4 5.7-20.8 4.5-2.4 0.5-4.6 0.3-10.2-0.6-2.1-0.7-0.5-0.5-1.5-2.2-0.3 0-2.5-0.5-0.7-1.1-0.3-1.8 0-5.5 2.1-10.6 0-1.4-2-4-0.6-3.6-0.5-1.5-2.6-4.7-0.4-1.4 0-1.4 1.1-4.5 0-1.4-0.6-1.7-1.9-2.7-0.2-0.7 0.2-0.7 0.8-1.2 0.3-0.6-0.3-1.6-0.8-1.7-1.1-1.5-1.3-0.9-3.2-3.1-1.6-1.5-0.6-0.8-0.3-1.1-0.7-11.6-1.4-5.5-4.1-7.5-0.5-2.4 0.3-17.3-0.9-3.1-13.8-22.9-1-1-1.5-0.4-2.7 0.1-1-0.1-1.4-0.9-1.5-0.9-1.1-3-0.1-9.1 0.5-1.6 1-1.5 4.5-3.9 0.1-1.3-2-1.6-1.7-0.7-3.1-2-6.7-3.3-1.5-1.1-1.4-1.5-1.4-1.9-1-2.2-0.2-2.2 0.7-1.8 1.5-1.2 3.8-1.3-2.6-4.7-0.8-2.3 0.1-2.8 0.3-2-0.2-0.7-2.1-0.4-2-1.3-0.3-1.4 1.2-1.2 8-2.5 2.1-0.2 0.9 0.2 0.7 0.2 0.6-0.1 0.6-0.7 0.3-0.7 0.6-2.4 0-1.4 1.4-3.2 0.2-1-0.1-0.5-0.3-0.4-0.3-0.9 0-2.1-0.1-0.5-0.5-1-0.6-0.4-2.1-0.9-1.1-0.8-2.1-2.2-3.2-2.5-0.4-0.9 0.1-1.3 0.9-1.4 2.7-2.4 1.2-1.3 3.6-5.4 2.9-4.5 1.4-2 1-0.9 2.6-1.2 0.6-0.5-0.5-1.3-1.2-1.4-1.3-1.3-7.1-5.2-2.3-0.9-1.8-1.1-2.4-4.1-1.5-1.6-6.2-5.5-2.1-1.5-3.1-1.1-0.9-0.6-0.7-1-1.6-3.6-1.2-2.2-0.8-1-1-0.6 1.9-2.7 0.6-1.3 0-1.5-0.2-0.8-3.7-7.7 0-0.1 0-0.1 0.5-0.9 0.1-1-0.1-0.9-0.5-0.9-1.5-2.8-0.6-3.4 0-3.6 0.5-3.3 0-1.6-0.5-1.4-2.3-4.1-0.3-1.1 0.2-3.8-0.1-0.6-1-3-0.1-0.6 0-0.7-0.2-1.6-0.7-1.1-2-2.2-0.9-3.2 1.9-2.1 2.4-1.9 0.5-3-0.7-1.1-0.8 0-1 0.4-1.4 0.1-1.1-0.4-1.1-0.4-2-1.3-1.5-0.4-0.5-0.1-0.4-0.5-1.4-1.5-1 0.2-0.8 0.6-0.8 0-1-1.7-0.6-2.5-0.1-5.1-0.4-2.5-1.7-3.2-2.3-2.6-5.3-4.8-1.4-2.1-0.6-2.5-0.3-5.5z"
          fill="url(#altiplano-grad)" stroke="#C8960C" stroke-width="4" />
        <path
          d="M108.6 576.1l0.1-5-0.2-2.4-0.7-2-1-1.3-1.3-1.3-2.6-2.2-1.1-0.4-3.4-0.4-0.1 0 1.1-1.8 1.1-3.8 0.7-1.5 0.3-0.1 1.1-0.2 0.4-0.1 3.6-3.3 2-1.4 1.8-0.7 1.9-0.3 1.7-0.7 1.5-1.7 0.3-1-0.3-0.5-0.5-0.2-0.2-0.4 0.2-0.7 0.4-0.4 2.8-1.7 0.8-0.9 1.7-3.8 6.7-7.2 0.9-1.5 1.3-3.7 0.6-1 1-0.6 2.4-0.2 1.2-0.3 3.8-2 1.1-0.9 1.1-1.4 0.8-1.1-1.7-2.4-0.4-1.2 0.2-2.1-0.1-4 0.2-1.4 0.6-1.2 1.7-2.2 2.2-1.1 7.4-3 1.5-2.3-0.7-1.9-1.5-1-3.5-1.4-2.6-3-1.5-0.9-1.9 0.7-2.1-0.7-0.7-0.1-0.8 0.3-1.2 1-0.8 0.3-1.7 0-1.5-0.6-1.5-0.8-1.2-1.1-2.3-2.9-1.5-3.7-2.7-7.1-2.8-7.1-2.8-7-2.9-7.1-0.8-2-0.3-2 0.6-2.1 4.2-6.5 0.4-1.3 0.1-1.4 0.4-1.3 0.8-1.3 0.7-0.3 1.8-0.6 0.5-0.3 0-0.6-0.8-2.1 0.4-1.1 1.1-1.4 1.2-1.1 2.2-0.8 0.9-2.6 1.3-0.1 1.6 0.1 1-0.8 0.1-1.3-1.5-1.5-1.6-2.4-1.1-1-3.9-2.9-1.1-1.1-3.8-5.9-1.1-1-1.4-1.3-0.4-1.2 0.3-1.3 1-2.6 0.2-0.5-0.3-5.6 0.1-1.1 0.6-0.9 1.5-0.9 3.6-1.1 1.1-0.6 0.9-2 0.4-8.7 0.8-1.3 1.3-0.1 1.5 0.3 1.5 0 0.4-0.7-0.2-3.2 0.2-1.1 0.4-0.3 1.1-0.3 0.5-0.3 2.6-3 1.2-0.9 4.3-2.4 1.3-1.3-0.3-1.3-0.9-1.4-0.5-1.2 0-2.6 0.1-1.3 0.3-1.2 1.7-1.2 2.2-0.6 4.4-0.6 1.3-1.3-0.3-2.4-1.6-4.6-0.4-2.3-0.4-1-0.7-1-3.5-2.4-0.9-1.2-0.4-2.2 0-2.4-0.2-2.3-1.2-1.8-0.8-2.6-0.1-0.9 0.2-1.1 0.3-0.8 0-0.8-0.7-1-3.5-2.9-1.4-1.9 0.9-1.6 0.9 0 2 0.3 0.7-0.1 0.6-0.8 0-0.8-0.1-0.8 0.2-0.9 0.5-0.8 1.4-1.5 0.5-0.9 0.6-1.6 0.4-1.7-0.2-1.5 0.7-13.3-0.9-5.3-0.2-2.7 0.5-8-0.1-1-0.8-6.6 0-2.9 0.3-1.6 2.1-1.6 0.7-1.6 0.8-1.3 1.5 0.2 0.8-1.9 1-1.4 1.4-0.9 5.4-1.5 0.5-0.6 1.5-3-0.6-0.8-2.2-0.5-0.6-0.7 0.1-1.1 0.6-1 0.9-0.7 2-1.1 0.9-0.8 0.8-1 0.5-1.1 0.4-1.3 0.4-0.6 0.7-0.3-0.4-0.6-1.6-2.9-6.9-12.2-6.8-12.2-6.9-12.2-6.9-12.2-6.8-12.2-6.9-12.2-6.9-12.1-6.9-12.2-0.2-0.4-0.2-0.4-0.3-0.4-0.2-0.4-0.2-0.4-0.3-0.5-0.2-0.4-0.2-0.4 4.9 0.2 2.6-0.2 4.4-1.1 2.2 0.3 2.2 0.6 2.4 0.4 3.7-0.1 5.2 0.6 2.4 0.5 2.3-0.2 1 0.2 4.9 2.1 0.3 0.1 0.6 0 0.3-0.1 1.5 0 3.1 0.8 1.6 0.2 1.7-0.4 1.8-0.7 1.8-0.3 1.9 0.6 1.2 0.5-1.1 1.6-0.8 1.6-0.4 1.7 0.3 2.8 0.2 0.6 0.5 0.4 1.2 0 9.4-1.9 1.8-1 3.4-2.4 2.9-1 1.1-0.2 1.1 0 1.1 0.2 0.9-0.2 2.1-2 1.2-0.6 3.1-0.3 1.2-0.5 1.3-1 1.3-1.3 1.1-1.4 0.9-1.4 1.7-4 0.9-1.3 3.7-4 2.4-4.3 0.9-1.1 1.5-1.1 2.1-1 1.1-0.4 1.1-0.1 1.8 0.3 7.9-0.4 1 0.2 0.9 0.3 1.3 0.7 2.6 2 1.2 0.6 2.3-0.6 1.1-2 0.6-2.4 0.7-2 0.7-0.7 2-1.7 0.8-1 1.3-2.1 0.8-0.9 1-0.9 1.3-0.4 2.3-1.1 2.7-0.9 1.4-0.9 1.1-1.1 0.9-1.2 0.3-0.8 0-0.5 0.2-0.5 0.7-0.6 0.6-0.2 3-0.1 0.7-0.1 0.7-0.2 0.5-0.4 0.1-0.7-0.4-1.4 0.1-0.6 1-0.5 1.5-0.3 2.7-0.1 1.2 0.2 2.6 0.7 1.1 0 0.8-0.5 0.5-0.7 0.4-0.8 0.5-0.5 0.7-0.2 1.3-0.1 0.7-0.1 3.1-1.8 10.6-10.9 8.7-6.7 1.2-0.7 5.4-2.1 0.7-0.4 0.3-0.5 0.2-0.8 0.2-0.7 0.4-0.5 0.7-0.2 7.8-1.4 4 0.3 1.3-0.2 1.3-0.4 2.8-1.6 1-0.4 6.5-1 1.2-0.4 2-1.4 1.2-0.5 3.6-0.3 0.3 0.1 0.2 0.3 0.3 0.2 0.4 0.1 0.3-0.3 0.4-0.8 0.3-0.2 1-0.2 0.4 0.1 0.8 0.3 1.7 1 0.9 0.2 1.2-0.2 3-1.9 1.2-0.3 1.2-0.1 0.9 0.1 2.7 0.6 0.8 0.1 0.8-0.5 1.1-1.1 0.1 0.5 0.3 0.5 0.3 0.6 0.4 0.2 0.7-0.1 0.2-0.6-0.1-0.7 0.1-0.5 0.6-1.3 0.4-0.3 0.4 0.9 0.1 0.6 0.2 0.5 0.3 0.4 0.6 0.2 2.5-1 1-0.1-0.2 1.6-0.3 0.8 0.3 0.2 0.6-0.1 0.5 0.1 0.2 0 0.7-0.3 0.3 0 0.4 0.2 0.6 0.7 0.3 0.3 2 1.3 0.9 0.5 1.2 0.2 0.8 0 0.3-0.3 0.2-0.5 0.3-0.5 0.1-0.2 0.1-0.6 0.1-0.3 0.3-0.2 0.8-0.1 0.3-0.1 0.7-0.9 0.7-1 0.2-0.6 0.3-1 0.4-0.6 3-2.5 0.9-1 0.6-0.1 1.8 0 1.2 0.4 1.8 1.6 0.9 2.1 0.2 0.2 0.9 3 0.6 0.7 0.9 0.8 0.8 0.9 0.4 1-0.3 1.6-1.4 2.7-0.6 1.5-0.2 2.7 0.3 2.7 0.5 2.6 1.3 3.4 0.2 1.5 0.2 2.9 0.1 0.6 0.7 1.6 0.1 0.7-0.2 0.6-1.1 1.8-0.7 3.2-0.8 1.6-2.5 1.2-0.9 1.3-0.7 1.5-0.3 1.2 0.1 0.5 0.1 0.2 0.3 0.3-1.6 2.8-0.9 0.9-1.6 0.4 0 0.4 0.7 1.2 0.2 0.5-0.1 0.3-0.3 0.6-0.1 0.4 0.1 0.6 0.2 0.7 0.2 0.6 0.2 0.2 0.2 0.7-0.4 3.3 0 1 1.1 1.3 1.2 0.7 0.9 1 0.4 1.9-0.1 1.2-0.5 2.5-1 3.1 0.4 0.8 2.6 0.7 1.1 0.8 1 1.1 0.6 1 0.4 5.7 0.2 0.4 0.3 0.4 0.4 0.5 0 0.8-0.3 0.6-0.4 0.4-0.5 0.4-0.6 0.4-1 1.6-0.1 1.2 0.4 1.2 0.2 1.4-0.5 1.2-2.5 2-1 1.1-0.2 1.7 0.8 1 1.1 0.8 0.6 0.9-0.4 1-0.9 0.6-0.6 0.7 0.1 1.6 0.8 1.3 1.4 1 1.2 0.7 0.6 0.4-0.3 0.9-1.1 1.3-0.4 0.8-0.1 0.7 0.1 0.5 2.2 5.8 1.8 1.9 2.3-0.6 1.6 0.9 0.7 0.6 0.5 0.8 0 0.7-0.5 1.2 0 0.9 0.2 0.9 0.4 0.2 0.4 0 0.8 0.3 1.4 1 0.5 0.6-1.6 0.5-0.2 0.6 0.3 1.6-0.1 0.7-0.6 1-0.1 0.7 0 2.4 0.4 0.9 0.9 1 1.2 0.9 0.8 0.3 0.5-0.7 0.4-3.2 0.3-0.9 0.4-0.5 0.9-0.3 0.2 0.6-0.2 1.6 0.9 0.9 1.2 0.5 1.1 0.6 0.6 2.2 0.8 1.5 0.3 0.7 0.1 0.7-0.1 1.3 0 0.7 0.4 1.4 0.3 0.6 0.7 0.4 0.2 0 0.7 0.3 0.4 0.7 0.1 0.8-0.3 0.7-0.9 1.3-0.1 1.2 0.5 1.1 0.7 0.8 1 0.5 1 0.3 2.8 0.1 1.4 0.3 1.4 0.5 1.4 0.2 1.4-0.6 0.8 0.4 1.2 0.3 1.1 0.4 0.5 1 0.3 1.4 0.8 1.2 2.1 2.3-0.5 0.9 0.3 0.8 0.8 0.3 0.8-0.2 0.1-0.6 0.3-1.7 0.2-0.4 1.1-0.2 0.2 0.4 0.3 1.1 0 0.6-0.4 0.8 0 0.5 0.2 0.3 0.5 0.6 0.2 0.2 0.6 0.7 1.6 1 3.2 1.4 0.8 0.1 1.7 0 0.4 0.1 1.1 0.9 1.3 0.7 0.1-0.2 0-0.2 0.1-0.1 1 0.1 0.3 0.1 1.1 1 0.2 0.5 0.1 0.8-0.1 1.5-0.3 1.4-1.2 2.7 0.2 1.2 0.4 0.3 1.4 0.5 0.6 0.3 0.6 0.7 0.8 1.4 0.5 0.7 0.8 0.9 1.1 0.8 1.2 0.6 1.6 0.2 2.6-0.5 1 0.3 0.7 2.1 0.6 0.2 0.6-0.2 0.4-0.1 0.4-0.3 0.7-0.8 0.7-0.2 1.4-0.2 1.1 0.4 1 0.6 1.8 2 0.7 0.2 0.7-0.7 0.9-1.4 1 1.2 4 0.1 1.4 2 1.3-0.2 2-0.8 0.9 0.3 0.6 0.6 0.7 0.5 1.2 0 0.8-0.7 0.4-0.6 0.4-0.6 2.2-2.8 0.1-0.4 1.1-0.1 2-0.7 0.9-0.1 9.5 1.4 0.2 0.1 3.5 1.9 2.8 2.3 1.1 0.5 1.4 0.3 0.9 0 0.7 0.1 0.7 0.3 0.6 0.5 0.5 0.7 0.1 0.7 0.1 0.6 0.2 0.7 0.6 0.5 0.5 0.2 0.5 0.2 0.2 0.8 0.3 0.4 2.5 1.9 1.4 0.4 0.8 0.3 1.9 1.5 0.8 0.3 4.7 0 0.7-0.2 0.3-0.5 0.6-0.6 1.4-1 0.3 0 0.8 0.1 0.3-0.1 0.3-0.3 0.3-0.7 0.3-0.3 1.8-0.8 0.2-0.2 0.7 0.2 1.3 0.6 2 0.5 0.7 0.9 0.5 2.4 0.2 0.5 0.5 0.3 0.2 0.4-0.5 0.8-0.1 0.4 0.1 0.4 0.2 0.3 1.5 1.2 0.7 0.9 0.3 0.6 0.2 1.5 0.5 1.3 0.8 1 0.8 0.6 0.7 0.3 0.6 0 0.6-0.1 0.6-0.4 0.6-0.2 0.3 0.4 0.2 0.7 3.5 4.5 0.2 0.4 0.3 0.3 0.7 0.2 0.7 0 0.5 0.1 0.3 0.4 0.1 0.6 0.3 1.1 0.9 0.9 1.1 0.8 1.3 0.7 0.1-1.4 0.7-0.3 1.1 0 1.3-0.2 0.8-0.5 0.7-0.6 0.8-0.1 1.3 0.8 0.6 0.5 0.4 0.6 0.3 0.6 0.1 1.6 0.3 0.3 5.7 2.5 4.1-0.1 1.3 0.2 0.9 0.6 1.8 2.2 0.2 0.3 0.1 0.7 0.2 0.1 0.9 0 0.2 0 1.2 0.7 0.5 0.2 3.1 0.4 0.8-0.1 0.8-0.7 1.3 0.6 1.1-0.3 1-0.5 2.4-0.6 0.7-0.1 0.7 0.2 1.8 1.2 0.1-1.6 0.6 0.2 1.5 1.8 0.7 0.3 0.6-0.2 0.4 0.1 0.1 1 0 4.5 0.2 1.2 0.7 0.9 1.4 1.1 2.9 3.2 0.9 0.5 0.1 0.2 1 1.6 0.4 0.3 1.4 0.7 1.2 0.7 3.2 3.2 0.6 0.5 1.3 0.6 0.5 0.5 0.3 0.5 1.3 4.6 0.8 0.6 1.5 0.3 1.3-0.3 1.3-0.4 1.3-0.3 1.3 0.6 1.2-0.8 1.5-0.6 1.7-0.4 4.7-0.4 0.2 0.1 0.3 0 1.8 1.7 0.7 0.4 3.1 0.7 3-0.3 2.8-1.1 4.5-2.3 1 0 1 0.5 2.4 0.4 1.3 0.8 0.8 0.3 0.7 0 1.5-0.4 4.4 0.1 0.6-0.4 0.4-1.3 1-0.7 2.8-0.4 0.2-0.2 0.8-0.5 0.9-0.2 0.4 0.7 0 2.7 1.2 1.4 2.9 0.5 3.2 0.2 2.2 0.5 1.2 1.2 0.5 0.3 4.5 1.9 5 4 4.8 3.8 2.3 1.2 1.5 0.4 0.5 0.2 0.2 0.3 0.4 0.8 0.2 0.3 0.6 0.3 5 1.2 1.2 0.7 0.5 1.2 0.1 1.9 0.4 1.8 0.6 1.8 0.6 1.4 0.6 0.6 1.4 1.2 0.1 0.4-0.3 0.7 0.4 0.4 0.7 0.3 0.4 0.3 0.1 0.6 0 0.4-0.6 1.3-0.8 3.1-0.7 1.5-1.2 1-1.6 0.5-0.4 0.3-0.4 0.9-0.2 1.6-0.1 1.5 0.2 0.9 0.9 1.6 0 1.7-0.2 1.8 0 1.9 0.7 1.2 3.6 3 0.5 1.1 1 4.3 2.2 4.8 0.3 2.9-2 0.7 1.1 2.2 3.2 2.2 0.8 1.5 0.2 4.1 0.3 5.6 0.2 5.6 0.3 5.6 0.2 5.6 0.3 4.4-0.4 0.8-7.5 0.1-12.7 0.1 3.5 3.1 4.5 5.5 7.1 8.6 6.1 7.2 0.9 1.5 0.5 1.7 0.9 10.2 1.2 13.8 0.9 10.1 0.4 7.4 0.5 7.7 1.2 3 2.1 0.6 4.5 0.1 12.6 0.5 12.5 0.4 12.6 0.5 12.5 0.4 12.5 0.5 12.6 0.5 12.5 0.4 12.6 0.5 4.7 0.1 1.5-0.1 1.3-0.7 0.5-0.7 1-1.7 0.4-0.3 2.9 0.1 0.7 0.6 0.3 6.6-0.3 1-1.5 1.3-0.1 1.2 1.3 2.5-0.8 2.5-6.6 7.5-1.1 2.1-0.5 2.3 0.2 3 1.4 5.2 0.2 2.7-0.2 0.5-0.5 1.2-0.2 0.6 0 0.9 0.7 3.4 1.1 2.1 0.4 1.2 0.4 4.8 0.3 1.1 0.7 1.2 0.4 1.5 0.1 6.2 0.3 2.6 1.2 2 2.5 1.4 2.1 0.3 0.6 0.2 0.7 0.4 1.1 1 0.7 0.4 0.5 0.1 1.1 0.2 0.6 0.3 0.7 1 1.1 2.3 1 0.8 0.9 0.2 0.8 0.1 0.7 0.2 0.8 0.6 1.8 2 0.8 0.5 2.3 1 0.8 0.5 2.8 2.4 1.9 0.8 2.5 0.6 2.5 0.2 1.9-0.6 1.5-0.2 1.2 0.1 1.4 0.6 0.9 1 0.7 1.5 0.2 1.7-0.1 1.7 0.1 1.1 0 2.7 0.1 1.2 0.5 1.3 0.7 0.9 0.9 0.8 0.9 0.7 1.1 0.4-0.6 2.2 0.2 0.8 1.2 1.5 1 1.7-0.2 1.2-2 0.2 6.1 10.7 3.4 8.5 2.3 4.2 2.6 1.5 1.3 0 1.1 0.2 0.6 0.6-0.1 1.6-4.5 0-1.2 0.3-0.9 0.8-1 3.4-3.1 9.9-3.1 9.9-3.1 10-3.1 9.9-0.8 2.4 2.7 0.2 0.7 0.6 0.3 1.3 0.3 4.2 0.4 3-3.7 0.3-1.1 0.7-1.5 3.2-2.1 4.3-4.5 9.5-4.5 9.5-2 4.3-0.8 1.8-1.8 3.8-1.8 3.8-0.8 1.7-2.3 4.9 0.5 2 5 4.6 5.3 4.9 6.6 6.1-0.6 0.9-0.8 1.1-0.9 1-1.5 0.7-1.6-0.4-1.1-0.1-0.5 0.3-0.1 0.6-0.5 0.6-0.6 0.4-0.8 0.1-1.7 0.7-2 3-1.7 0.7-0.5 0.2-0.8 1.2-0.3 0.4-0.8 0.5-2.8 1-0.1-1.8 1-3.7 0.1-1.5-0.1-2.9 0.2-1.6-0.2-2.2-1.2-4-0.1-2.2 0.2-2.4-0.2-1-0.7-0.8-2.6-1.6-6.2-3.8-6.1-3.8-6.1-3.9-6.2-3.8-6.1-3.8-6.2-3.8-6.1-3.9-6.1-3.8-3.4-2-1.8-1.4-2-1.4-1.3-0.3-5.4 0-12.4 0.2-12.4 0.2-12.4 0.1-12.4 0.2-5.4 0.1-9.9 2.1-22.3 4.9-22.3 4.8-22.3 4.9-22.3 4.8-1.4 0.3-3.1 0.4-3.1 0.5-1.4 0.2-5.9 0.9-1 0.5-0.6 0.8-1.2 3.4-1.8 5.2-1.9 5.1-1.8 5.2-1.9 5.1-0.9 1.8-0.8 1.8-0.4 0.9-0.5 0.9-0.8 1.8-1.1 1.7-1.1 1.7-1.1 1.7-1.1 1.6-2.9 4.3-3 4.3-2.9 4.3-3 4.2-1.3 2-1.5 2.1-2.4 3.7-0.5 1.8 0 6.4 0.1 6.2 0.1 6.8 0.1 10.3-0.2 4.6-2.2 7.3-2.1 7.3-2.3 7.9-2.4 8.2-2.3 7.5-3 10.3-2.4 8-2.9 9.7-1.7 6.3-1.9 6.7-1.5 3.6-0.6-0.2-0.2-0.5 0-0.7-0.3-0.6-0.8-0.8-2.8-2.1-3.1-1.5-1-1-0.5-1.2 0-2.3-0.4-0.9 0.2-0.5 0-0.7-0.4-2.7-0.2-0.7-1-0.2-2.8-0.6-9.8 0.6-20.7-0.1-20.7-0.2-2.6 0.5-1 0.6-3.1 2.7-0.7-0.3-2.7-2.5-1.4-0.6-6.1-0.4-1.8 0.3-0.9 0.5-0.2 0.2-0.1 0.4-0.6 1.6-0.2 1.4-0.3 0.5-0.5 0.6-0.5 0.2-0.4 0.2-0.4 0.2-0.6 1.2-1 4-2 5.2-0.5 0.8-1.4 0.7-0.5 0.6-4.8 12.8-1.6 2.3-3.4 3.3-1 1.7-2.8 10.7-0.1 5.1-0.6 1.4-1.5 5.5 0.1 0.9-1.2-0.6-0.3-3.3-0.8-1 0.5-1.7-0.2-1.9-0.9-1.6-1.4-0.7-0.7-0.6-1.8-3.8-0.6-0.5-0.6-0.2-0.4-0.4-0.2-1.1 0.1-0.8 0.3-1.4 0-0.7 0.3-0.8 0.5-0.6 0.5-0.7 0.1-1.1-3.6-3.6-1-1.3-0.4-1.7-0.2-0.4-1.2-0.8-0.4-0.5 0.1-0.7 0.5-1.4-0.1-0.8-0.9-0.8-1.4-0.9-0.8-1.3 0.6-1.6 0.9-1.1 0.4-1 0-1.1-0.6-1.5-0.6-0.8-1.7-2.2-0.6-0.4-1.4-0.3-1.4-0.8-1.3-0.9-1.4-0.2-0.5-0.2-0.6 0.1-1.2 0.5-0.6 0.1-2.6-0.6-4.6-2.6-12.4-2.9-11.2 0.1-17.5 0.2-3.5-0.4-4.6-0.6-0.6 0-0.3 0.3-0.3 0.3-0.5 0.3-9.2 1-2-0.6-1.9-1.4-8.4-10-1.5-0.8-6-1.1-0.4-0.4-0.8-3.4-2-2.2-2.8-1.5-5.6-1.8-1.2 0.4-3.1 11.7-0.6 6.6-0.3 1-0.4 0.9-0.2 0.1-0.2-0.2-0.9 0.1-0.5 0.4-0.6 0.5-0.4 0.7-0.2 0.7-1.6 1.2-8.8 2.6-7.6 2.1-0.3 0.3-0.2 0.6-0.2 0.4-0.3 0.1-1.1-0.3-1.3-0.2-0.7-0.2-0.7-0.1-0.9 0.4-1.5 1.3-0.9 1.4-0.5 1.7-0.7 5.3-0.5 1.6-0.9 1-0.1 0.6 0.4 2.1-0.1 0.7-0.7 0.5-7.4 2.4-1.8 0.9-1.3 1.4-0.6 1-0.9 0.6-1 0.2-1.4-0.1-1.2 0 0.6 6.7-0.2 1.5-0.7 1.1-5 4-1.9 2.3-3.4 5.7-20.8 4.5-2.4 0.5-4.6 0.3-10.2-0.6-2.1-0.7-0.5-0.5-1.5-2.2-0.3 0-2.5-0.5-0.7-1.1-0.3-1.8 0-5.5 2.1-10.6 0-1.4-2-4-0.6-3.6-0.5-1.5-2.6-4.7-0.4-1.4 0-1.4 1.1-4.5 0-1.4-0.6-1.7-1.9-2.7-0.2-0.7 0.2-0.7 0.8-1.2 0.3-0.6-0.3-1.6-0.8-1.7-1.1-1.5-1.3-0.9-3.2-3.1-1.6-1.5-0.6-0.8-0.3-1.1-0.7-11.6-1.4-5.5-4.1-7.5-0.5-2.4 0.3-17.3-0.9-3.1-13.8-22.9-1-1-1.5-0.4-2.7 0.1-1-0.1-1.4-0.9-1.5-0.9-1.1-3-0.1-9.1 0.5-1.6 1-1.5 4.5-3.9 0.1-1.3-2-1.6-1.7-0.7-3.1-2-6.7-3.3-1.5-1.1-1.4-1.5-1.4-1.9-1-2.2-0.2-2.2 0.7-1.8 1.5-1.2 3.8-1.3-2.6-4.7-0.8-2.3 0.1-2.8 0.3-2-0.2-0.7-2.1-0.4-2-1.3-0.3-1.4 1.2-1.2 8-2.5 2.1-0.2 0.9 0.2 0.7 0.2 0.6-0.1 0.6-0.7 0.3-0.7 0.6-2.4 0-1.4 1.4-3.2 0.2-1-0.1-0.5-0.3-0.4-0.3-0.9 0-2.1-0.1-0.5-0.5-1-0.6-0.4-2.1-0.9-1.1-0.8-2.1-2.2-3.2-2.5-0.4-0.9 0.1-1.3 0.9-1.4 2.7-2.4 1.2-1.3 3.6-5.4 2.9-4.5 1.4-2 1-0.9 2.6-1.2 0.6-0.5-0.5-1.3-1.2-1.4-1.3-1.3-7.1-5.2-2.3-0.9-1.8-1.1-2.4-4.1-1.5-1.6-6.2-5.5-2.1-1.5-3.1-1.1-0.9-0.6-0.7-1-1.6-3.6-1.2-2.2-0.8-1-1-0.6 1.9-2.7 0.6-1.3 0-1.5-0.2-0.8-3.7-7.7 0-0.1 0-0.1 0.5-0.9 0.1-1-0.1-0.9-0.5-0.9-1.5-2.8-0.6-3.4 0-3.6 0.5-3.3 0-1.6-0.5-1.4-2.3-4.1-0.3-1.1 0.2-3.8-0.1-0.6-1-3-0.1-0.6 0-0.7-0.2-1.6-0.7-1.1-2-2.2-0.9-3.2 1.9-2.1 2.4-1.9 0.5-3-0.7-1.1-0.8 0-1 0.4-1.4 0.1-1.1-0.4-1.1-0.4-2-1.3-1.5-0.4-0.5-0.1-0.4-0.5-1.4-1.5-1 0.2-0.8 0.6-0.8 0-1-1.7-0.6-2.5-0.1-5.1-0.4-2.5-1.7-3.2-2.3-2.6-5.3-4.8-1.4-2.1-0.6-2.5-0.3-5.5z"
          fill="url(#hatch)" stroke="none" opacity="0.5" />
      </g>

    </g>

    <g transform="translate(60,100)">
      <ellipse cx="0" cy="0" rx="60" ry="55" fill="url(#valles-grad)" opacity="0.7" />
    </g>
    <g transform="translate(280,260)">
      <ellipse cx="0" cy="0" rx="80" ry="70" fill="url(#oriente-grad)" opacity="0.7" />
    </g>

    <g stroke="rgba(200,150,12,0.35)" stroke-width="0.25" fill="none" opacity="0.6">
      <ellipse cx="100" cy="130" rx="40" ry="35" />
      <ellipse cx="100" cy="130" rx="30" ry="26" />
      <ellipse cx="100" cy="130" rx="20" ry="17" />
      <ellipse cx="220" cy="220" rx="55" ry="45" />
      <ellipse cx="220" cy="220" rx="40" ry="33" />
      <ellipse cx="220" cy="220" rx="25" ry="20" />
      <ellipse cx="300" cy="180" rx="35" ry="30" />
      <ellipse cx="300" cy="180" rx="20" ry="17" />
    </g>

  </g>

  <g opacity="0.15">
    <line x1="0" y1="60" x2="420" y2="60" stroke="#C8960C" stroke-width="0.5" stroke-dasharray="2,4" />
    <line x1="0" y1="120" x2="420" y2="120" stroke="#C8960C" stroke-width="0.5" stroke-dasharray="2,4" />
    <line x1="0" y1="180" x2="420" y2="180" stroke="#C8960C" stroke-width="0.5" stroke-dasharray="2,4" />
    <line x1="0" y1="240" x2="420" y2="240" stroke="#C8960C" stroke-width="0.5" stroke-dasharray="2,4" />
    <line x1="0" y1="300" x2="420" y2="300" stroke="#C8960C" stroke-width="0.5" stroke-dasharray="2,4" />
    <line x1="0" y1="360" x2="420" y2="360" stroke="#C8960C" stroke-width="0.5" stroke-dasharray="2,4" />
    <line x1="60" y1="0" x2="60" y2="420" stroke="#C8960C" stroke-width="0.5" stroke-dasharray="2,4" />
    <line x1="120" y1="0" x2="120" y2="420" stroke="#C8960C" stroke-width="0.5" stroke-dasharray="2,4" />
    <line x1="180" y1="0" x2="180" y2="420" stroke="#C8960C" stroke-width="0.5" stroke-dasharray="2,4" />
    <line x1="240" y1="0" x2="240" y2="420" stroke="#C8960C" stroke-width="0.5" stroke-dasharray="2,4" />
    <line x1="300" y1="0" x2="300" y2="420" stroke="#C8960C" stroke-width="0.5" stroke-dasharray="2,4" />
    <line x1="360" y1="0" x2="360" y2="420" stroke="#C8960C" stroke-width="0.5" stroke-dasharray="2,4" />
  </g>

  <g opacity="0.55">
    <text x="6" y="63" font-family="DM Mono,monospace" font-size="5" fill="#C8960C">18°S</text>
    <text x="6" y="123" font-family="DM Mono,monospace" font-size="5" fill="#C8960C">17°S</text>
    <text x="6" y="183" font-family="DM Mono,monospace" font-size="5" fill="#C8960C">16°S</text>
    <text x="6" y="243" font-family="DM Mono,monospace" font-size="5" fill="#C8960C">15°S</text>
    <text x="6" y="303" font-family="DM Mono,monospace" font-size="5" fill="#C8960C">14°S</text>
    <text x="6" y="363" font-family="DM Mono,monospace" font-size="5" fill="#C8960C">13°S</text>
    <text x="62" y="10" font-family="DM Mono,monospace" font-size="5" fill="#C8960C">69°W</text>
    <text x="122" y="10" font-family="DM Mono,monospace" font-size="5" fill="#C8960C">68°W</text>
    <text x="182" y="10" font-family="DM Mono,monospace" font-size="5" fill="#C8960C">67°W</text>
    <text x="242" y="10" font-family="DM Mono,monospace" font-size="5" fill="#C8960C">66°W</text>
    <text x="302" y="10" font-family="DM Mono,monospace" font-size="5" fill="#C8960C">65°W</text>
    <text x="362" y="10" font-family="DM Mono,monospace" font-size="5" fill="#C8960C">64°W</text>
  </g>

  <rect class="scan-line" x="40" y="40" width="200" height="2" fill="url(#city-glow)" opacity="0.5" />

  <g transform="translate(180,148)">
    <circle cx="0" cy="0" r="24" fill="url(#lpaz-halo-grad)" />
    <circle cx="0" cy="0" r="18" fill="none" stroke="#C8960C" stroke-width="0.5" opacity="0.3" class="lpaz-pulse-outer" />
    <circle cx="0" cy="0" r="12" fill="none" stroke="#C8960C" stroke-width="0.7" opacity="0.55" class="lpaz-pulse-mid" />
    <circle cx="0" cy="0" r="7" fill="none" stroke="rgba(255,255,255,0.7)" stroke-width="0.4" opacity="0.4" class="lpaz-pulse-inner" />

    <circle cx="0" cy="0" r="5" fill="rgba(13,27,42,0.95)" stroke="#C8960C" stroke-width="1.4" filter="url(#lpaz-glow)" />
    <circle cx="0" cy="0" r="2.2" fill="#fff" class="lpaz-dot" />

    <circle cx="0" cy="0" r="1" fill="rgba(200,150,12,0.9)" />

    <line x1="0" y1="-7" x2="0" y2="-22" stroke="#C8960C" stroke-width="0.6" opacity="0.6" />
    <line x1="7" y1="0" x2="22" y2="0" stroke="#C8960C" stroke-width="0.6" opacity="0.6" />
  </g>

  <g transform="translate(245,265)">
    <circle cx="0" cy="0" r="2.5" fill="rgba(200,150,12,0.6)" stroke="#C8960C" stroke-width="0.5" />
    <circle cx="0" cy="0" r="0.8" fill="#fff" opacity="0.85" />
  </g>
  <text x="248" y="270" font-family="DM Mono,monospace" font-size="5" fill="#C8960C" opacity="0.7" letter-spacing="0.05em">SCZ</text>

  <g transform="translate(140,210)">
    <circle cx="0" cy="0" r="2" fill="rgba(200,150,12,0.5)" stroke="#C8960C" stroke-width="0.4" />
    <circle cx="0" cy="0" r="0.6" fill="#fff" opacity="0.85" />
  </g>
  <text x="143" y="215" font-family="DM Mono,monospace" font-size="5" fill="#C8960C" opacity="0.7" letter-spacing="0.05em">CBB</text>

  <g transform="translate(215,335)">
    <circle cx="0" cy="0" r="1.8" fill="rgba(200,150,12,0.5)" stroke="#C8960C" stroke-width="0.4" />
    <circle cx="0" cy="0" r="0.5" fill="#fff" opacity="0.85" />
  </g>
  <text x="218" y="340" font-family="DM Mono,monospace" font-size="5" fill="#C8960C" opacity="0.7" letter-spacing="0.05em">TJA</text>

  <g transform="translate(195,80)" filter="url(#soft-shadow)">
    <rect x="0" y="0" width="138" height="62" rx="2" fill="rgba(13,27,42,0.95)" stroke="#C8960C" stroke-width="0.7" />
    <rect x="0" y="0" width="138" height="14" rx="2" fill="rgba(200,150,12,0.18)" />
    <rect x="0" y="13" width="138" height="1" fill="#C8960C" opacity="0.4" />

    <text x="6" y="10" font-family="DM Mono,monospace" font-size="6" fill="#C8960C" letter-spacing="0.18em" font-weight="bold">● USTED ESTÁ AQUÍ</text>

    <text x="6" y="26" font-family="DM Mono,monospace" font-size="5.5" fill="#C8960C" opacity="0.7" letter-spacing="0.1em">LAT</text>
    <text x="6" y="36" font-family="DM Mono,monospace" font-size="8" fill="#fff" font-weight="bold" letter-spacing="0.04em">16°39'14"S</text>

    <line x1="68" y1="20" x2="68" y2="60" stroke="#C8960C" stroke-width="0.3" opacity="0.3" />

    <text x="74" y="26" font-family="DM Mono,monospace" font-size="5.5" fill="#C8960C" opacity="0.7" letter-spacing="0.1em">LON</text>
    <text x="74" y="36" font-family="DM Mono,monospace" font-size="8" fill="#fff" font-weight="bold" letter-spacing="0.04em">68°17'45"W</text>

    <line x1="6" y1="44" x2="132" y2="44" stroke="#C8960C" stroke-width="0.3" opacity="0.3" />

    <text x="6" y="54" font-family="DM Mono,monospace" font-size="5" fill="#C8960C" opacity="0.6" letter-spacing="0.1em">ALT</text>
    <text x="6" y="60" font-family="DM Mono,monospace" font-size="6" fill="#C8960C" letter-spacing="0.04em">3,827 m</text>

    <text x="80" y="54" font-family="DM Mono,monospace" font-size="5" fill="#C8960C" opacity="0.6" letter-spacing="0.1em">UTM</text>
    <text x="80" y="60" font-family="DM Mono,monospace" font-size="6" fill="#C8960C" letter-spacing="0.04em">19K · 577325</text>
  </g>

  <line x1="195" y1="143" x2="195" y2="148" stroke="#C8960C" stroke-width="0.5" opacity="0.5" stroke-dasharray="1.5,1.5" />

  <g transform="translate(180,148)">
    <text x="0" y="-30" font-family="DM Mono,monospace" font-size="9" fill="#C8960C" text-anchor="middle" font-weight="bold" letter-spacing="0.1em">LA PAZ</text>
    <text x="0" y="-22" font-family="DM Mono,monospace" font-size="4.5" fill="#C8960C" text-anchor="middle" opacity="0.6" letter-spacing="0.15em">CAP. ADMINISTRATIVA</text>
  </g>

  <g transform="translate(345,40)" filter="url(#soft-shadow)">
    <circle cx="0" cy="0" r="32" fill="rgba(13,27,42,0.92)" stroke="#C8960C" stroke-width="0.7" />

    <g class="compass-outer">
      <circle cx="0" cy="0" r="26" fill="none" stroke="#C8960C" stroke-width="0.2" opacity="0.25" stroke-dasharray="1,2" />
    </g>

    <g stroke="#C8960C" stroke-width="0.4" opacity="0.45">
      <line x1="0" y1="-30" x2="0" y2="-32" />
      <line x1="0" y1="30" x2="0" y2="32" />
      <line x1="-30" y1="0" x2="-32" y2="0" />
      <line x1="30" y1="0" x2="32" y2="0" />
      <line x1="21.2" y1="-21.2" x2="22.6" y2="-22.6" />
      <line x1="21.2" y1="21.2" x2="22.6" y2="22.6" />
      <line x1="-21.2" y1="21.2" x2="-22.6" y2="22.6" />
      <line x1="-21.2" y1="-21.2" x2="-22.6" y2="-22.6" />
    </g>

    <g stroke="#C8960C" stroke-width="0.5" opacity="0.7">
      <line x1="0" y1="-22" x2="0" y2="-28" />
      <line x1="0" y1="22" x2="0" y2="28" />
      <line x1="-22" y1="0" x2="-28" y2="0" />
      <line x1="22" y1="0" x2="28" y2="0" />
    </g>

    <g stroke="#C8960C" stroke-width="0.25" opacity="0.4">
      <line x1="0" y1="-12" x2="0" y2="-20" />
      <line x1="0" y1="12" x2="0" y2="20" />
      <line x1="-12" y1="0" x2="-20" y2="0" />
      <line x1="12" y1="0" x2="20" y2="0" />
      <line x1="8.5" y1="-8.5" x2="14.1" y2="-14.1" />
      <line x1="8.5" y1="8.5" x2="14.1" y2="14.1" />
      <line x1="-8.5" y1="8.5" x2="-14.1" y2="14.1" />
      <line x1="-8.5" y1="-8.5" x2="-14.1" y2="-14.1" />
    </g>

    <polygon points="0,-22 5,4 0,0" fill="#C8960C" filter="url(#lpaz-glow)" />
    <polygon points="0,-22 -5,4 0,0" fill="rgba(200,150,12,0.35)" />
    <polygon points="0,22 4,3 0,0" fill="rgba(200,150,12,0.45)" />
    <polygon points="0,22 -4,3 0,0" fill="rgba(200,150,12,0.18)" />
    <polygon points="-22,0 4,4 0,0" fill="rgba(200,150,12,0.25)" />
    <polygon points="22,0 -4,4 0,0" fill="rgba(200,150,12,0.18)" />

    <circle cx="0" cy="0" r="3.5" fill="rgba(13,27,42,0.98)" stroke="#C8960C" stroke-width="0.7" />
    <circle cx="0" cy="0" r="1.2" fill="#C8960C" />

    <g font-family="DM Mono,monospace" fill="#C8960C" text-anchor="middle">
      <text x="0" y="-36" font-size="10" font-weight="bold" letter-spacing="0.08em">N</text>
      <text x="0" y="42" font-size="6" letter-spacing="0.05em" opacity="0.7">S</text>
      <text x="40" y="2.5" font-size="6" letter-spacing="0.05em" opacity="0.7">E</text>
      <text x="-40" y="2.5" font-size="6" letter-spacing="0.05em" opacity="0.7">W</text>
    </g>

    <g font-family="DM Mono,monospace" fill="#C8960C" text-anchor="middle" opacity="0.5">
      <text x="17" y="-15" font-size="4">NE</text>
      <text x="17" y="20" font-size="4">SE</text>
      <text x="-17" y="20" font-size="4">SW</text>
      <text x="-17" y="-15" font-size="4">NW</text>
    </g>
  </g>

  <g transform="translate(18,355)" filter="url(#soft-shadow)">
    <rect x="0" y="0" width="124" height="48" rx="2" fill="rgba(13,27,42,0.92)" stroke="#C8960C" stroke-width="0.5" opacity="0.95" />

    <text x="6" y="9" font-family="DM Mono,monospace" font-size="5" fill="#C8960C" opacity="0.65" letter-spacing="0.18em" font-weight="bold">ESCALA</text>

    <g transform="translate(6,15)">
      <rect x="0" y="0" width="15" height="5" fill="#C8960C" />
      <rect x="15" y="0" width="15" height="5" fill="rgba(200,150,12,0.25)" stroke="#C8960C" stroke-width="0.3" />
      <rect x="30" y="0" width="15" height="5" fill="#C8960C" />
      <rect x="45" y="0" width="15" height="5" fill="rgba(200,150,12,0.25)" stroke="#C8960C" stroke-width="0.3" />
      <rect x="60" y="0" width="15" height="5" fill="#C8960C" />
      <rect x="75" y="0" width="15" height="5" fill="rgba(200,150,12,0.25)" stroke="#C8960C" stroke-width="0.3" />
      <rect x="90" y="0" width="15" height="5" fill="#C8960C" />
    </g>

    <g font-family="DM Mono,monospace" font-size="4.5" fill="#C8960C" text-anchor="middle" opacity="0.85">
      <text x="6" y="28">0</text>
      <text x="51" y="28">50</text>
      <text x="111" y="28">100 km</text>
    </g>

    <line x1="6" y1="33" x2="114" y2="33" stroke="#C8960C" stroke-width="0.3" opacity="0.4" />
    <g font-family="DM Mono,monospace" font-size="4" fill="#C8960C" opacity="0.55" text-anchor="middle">
      <text x="28" y="42">25</text>
      <text x="73" y="42">75 mi</text>
    </g>
  </g>

  <g transform="translate(252,355)" filter="url(#soft-shadow)">
    <rect x="0" y="0" width="150" height="48" rx="2" fill="rgba(13,27,42,0.92)" stroke="#C8960C" stroke-width="0.5" opacity="0.95" />

    <text x="6" y="9" font-family="DM Mono,monospace" font-size="5" fill="#C8960C" opacity="0.65" letter-spacing="0.18em" font-weight="bold">PROYECCIÓN</text>

    <g font-family="DM Mono,monospace" fill="#C8960C">
      <text x="6" y="19" font-size="6.5" font-weight="bold" letter-spacing="0.05em">WGS84</text>
      <text x="6" y="27" font-size="5" opacity="0.75" letter-spacing="0.05em">UTM Zone 19S</text>
    </g>

    <line x1="78" y1="12" x2="78" y2="42" stroke="#C8960C" stroke-width="0.3" opacity="0.35" />

    <g font-family="DM Mono,monospace" fill="#C8960C">
      <text x="84" y="19" font-size="6.5" font-weight="bold" letter-spacing="0.05em">EPSG:32719</text>
      <text x="84" y="27" font-size="5" opacity="0.75" letter-spacing="0.05em">Datum Global</text>
    </g>

    <g font-family="DM Mono,monospace" fill="#C8960C" opacity="0.55">
      <text x="6" y="38" font-size="4" letter-spacing="0.1em">FUENTE: IGN · IGM BOLIVIA</text>
      <text x="6" y="45" font-size="4" letter-spacing="0.1em">ESCALA 1:4.500.000</text>
    </g>
  </g>

  <g opacity="0.4">
    <line x1="40" y1="40" x2="40" y2="46" stroke="#C8960C" stroke-width="0.5" />
    <line x1="40" y1="40" x2="46" y2="40" stroke="#C8960C" stroke-width="0.5" />
    <line x1="380" y1="40" x2="380" y2="46" stroke="#C8960C" stroke-width="0.5" />
    <line x1="380" y1="40" x2="374" y2="40" stroke="#C8960C" stroke-width="0.5" />
    <line x1="40" y1="380" x2="40" y2="374" stroke="#C8960C" stroke-width="0.5" />
    <line x1="40" y1="380" x2="46" y2="380" stroke="#C8960C" stroke-width="0.5" />
    <line x1="380" y1="380" x2="380" y2="374" stroke="#C8960C" stroke-width="0.5" />
    <line x1="380" y1="380" x2="374" y2="380" stroke="#C8960C" stroke-width="0.5" />
  </g>

  <g transform="translate(210,398)">
    <text x="0" y="0" font-family="DM Mono,monospace" font-size="5" fill="#C8960C" text-anchor="middle" opacity="0.5" letter-spacing="0.3em">· LEXGEOCAT ·</text>
  </g>

</svg>
