<?xml version="1.0" encoding="UTF-8"?>

<svg
  xmlns="http://www.w3.org/2000/svg"
  viewBox="0 0 420 420"
  aria-hidden="true"
  role="img"
>

  <!-- ═══════════════════════════════════════════════════════════════════
       1. DEFINITIONS
       All reusable resources: gradients, filters, masks, patterns, styles
       ═══════════════════════════════════════════════════════════════════ -->
  <defs>

    <!-- ── 1a. GRADIENTS ──────────────────────────────────────────────── -->

    <!-- Vignette mask: centre fully visible, edges fade to transparent -->
    <radialGradient id="grad-vignette-mask" cx="50%" cy="55%" r="58%">
      <stop offset="0%" stop-color="#fff" stop-opacity="1" />
      <stop offset="68%" stop-color="#fff" stop-opacity="0.72" />
      <stop offset="100%" stop-color="#fff" stop-opacity="0" />
    </radialGradient>

    <!-- Territory region fills -->
    <linearGradient id="grad-altiplano" x1="0%" y1="0%" x2="100%" y2="100%">
      <stop offset="0%" stop-color="rgba(200,150,12,0.22)" />
      <stop offset="100%" stop-color="rgba(200,150,12,0.06)" />
    </linearGradient>

    <!-- La Paz capital marker glow -->
    <radialGradient id="grad-lpaz-halo" cx="50%" cy="50%" r="50%">
      <stop offset="0%" stop-color="rgba(200,150,12,0.65)" />
      <stop offset="45%" stop-color="rgba(200,150,12,0.22)" />
      <stop offset="100%" stop-color="rgba(200,150,12,0)" />
    </radialGradient>

    <!-- ── 1b. FILTERS ────────────────────────────────────────────────── -->

    <!-- Subtle glow used on La Paz dot and north arrow -->
 

    <!-- Panel drop-shadow: soft, low offset — premium feel -->
    <filter id="filter-panel-shadow" x="-12%" y="-12%" width="124%" height="124%"
      color-interpolation-filters="linearRGB">
      <feGaussianBlur stdDeviation="2.5" in="SourceAlpha" result="blur" />
      <feOffset dx="0" dy="2" in="blur" result="offset" />
      <feFlood flood-color="rgba(0,0,0,0.45)" result="color" />
      <feComposite in="color" in2="offset" operator="in" result="shadow" />
      <feMerge>
        <feMergeNode in="shadow" />
        <feMergeNode in="SourceGraphic" />
      </feMerge>
    </filter>

    <!-- ── 1c. MASKS ──────────────────────────────────────────────────── -->

 

    <!-- ── 1d. PATTERNS ──────────────────────────────────────────────── -->

    <!-- Diagonal hatch: texture layer on the territory fill -->

    <!-- ── 1e. STYLES: animations + component classes ─────────────────── -->
    <style type="text/css"><![CDATA[

      /* ── Animation keyframes ───────────────────────────────────────── */

      /* La Paz pulse rings — outer: wide, slow; mid: tighter, delayed */
      @keyframes anim-pulse-outer {
        0%   { transform: scale(0.6);  opacity: 0.80; }
        100% { transform: scale(3.0);  opacity: 0;    }
      }
      @keyframes anim-pulse-mid {
        0%   { transform: scale(0.6);  opacity: 0.90; }
        100% { transform: scale(2.0);  opacity: 0;    }
      }
      @keyframes anim-pulse-inner {
        0%   { transform: scale(0.65); opacity: 0.85; }
        100% { transform: scale(1.60); opacity: 0;    }
      }

      /* La Paz dot: gentle pulsing glow */
      @keyframes anim-dot-breathe {
        0%, 100% { opacity: 1;    }
        50%       { opacity: 0.60; }
      }

      /* HUD scan-line: sweeps from top to bottom of the SVG viewport */
      @keyframes anim-scan-sweep {
        0%   { transform: translateY(0px);   opacity: 0.15; }
        20%  { opacity: 0.55; }
        80%  { opacity: 0.45; }
        100% { transform: translateY(380px); opacity: 0.10; }
      }

      /* Compass outer dashed ring: slow continuous rotation */
      @keyframes anim-compass-rotate {
        from { transform: rotate(0deg);   }
        to   { transform: rotate(360deg); }
      }

      /* ── Reusable component classes ────────────────────────────────── */

      /* La Paz pulse rings — shared geometry, different timings */
      .lpaz-pulse-outer,
      .lpaz-pulse-mid,
      .lpaz-pulse-inner {
        transform-box:    fill-box;
        transform-origin: center center;
      }
      .lpaz-pulse-outer {
        animation: anim-pulse-outer 3.2s cubic-bezier(0.25,0.46,0.45,0.94) infinite;
      }
      .lpaz-pulse-mid {
        animation: anim-pulse-mid   3.2s cubic-bezier(0.25,0.46,0.45,0.94) infinite 0.65s;
      }
      .lpaz-pulse-inner {
        animation: anim-pulse-inner 2.2s cubic-bezier(0.25,0.46,0.45,0.94) infinite 1.15s;
      }

      /* La Paz central dot */
      .lpaz-dot {
        animation: anim-dot-breathe 2.8s ease-in-out infinite 1.0s;
      }

      /* HUD scan-line element */
      .hud-scanline {
        animation: anim-scan-sweep 5s ease-in-out infinite;
      }

      /* Compass outer ring */
      .compass-ring-animated {
        transform-box:    fill-box;
        transform-origin: center center;
        animation: anim-compass-rotate 80s linear infinite;
      }

      /* Monospaced label base: avoids repeating font attrs on every text */
      .map-label {
        font-family: 'DM Mono', 'Courier New', monospace;
        fill: #C8960C;
      }
      .map-label-dim   { fill: rgba(200,150,12,0.65); }
      .map-label-faint { fill: rgba(200,150,12,0.42); }
      .map-label-white { fill: #ffffff; }

    ]]></style>

  </defs>
  <!-- END DEFS -->


<!-- ═══════════════════════════════════════════════════════════════════
       2. MAP BODY LAYER
       ═══════════════════════════════════════════════════════════════════ -->
  <g id="layer-map-body" mask="url(#mask-map-vignette)">

    <!-- Bolivia territory outline — scaled to fit 420×420 viewport -->
    <g id="map-territory" transform="translate(82,28) scale(0.19)">
      <g transform="translate(200,200)">

        <!-- Base fill: Altiplano gradient (dominant region) -->
        <path id="bolivia-fill"
          fill="url(#grad-altiplano)"
          stroke="#C8960C"
          stroke-width="6"
          stroke-linejoin="round"
          d="M108.6 576.1l0.1-5-0.2-2.4-0.7-2-1-1.3-1.3-1.3-2.6-2.2-1.1-0.4-3.4-0.4-0.1 0 1.1-1.8 1.1-3.8 0.7-1.5 0.3-0.1 1.1-0.2 0.4-0.1 3.6-3.3 2-1.4 1.8-0.7 1.9-0.3 1.7-0.7 1.5-1.7 0.3-1-0.3-0.5-0.5-0.2-0.2-0.4 0.2-0.7 0.4-0.4 2.8-1.7 0.8-0.9 1.7-3.8 6.7-7.2 0.9-1.5 1.3-3.7 0.6-1 1-0.6 2.4-0.2 1.2-0.3 3.8-2 1.1-0.9 1.1-1.4 0.8-1.1-1.7-2.4-0.4-1.2 0.2-2.1-0.1-4 0.2-1.4 0.6-1.2 1.7-2.2 2.2-1.1 7.4-3 1.5-2.3-0.7-1.9-1.5-1-3.5-1.4-2.6-3-1.5-0.9-1.9 0.7-2.1-0.7-0.7-0.1-0.8 0.3-1.2 1-0.8 0.3-1.7 0-1.5-0.6-1.5-0.8-1.2-1.1-2.3-2.9-1.5-3.7-2.7-7.1-2.8-7.1-2.8-7-2.9-7.1-0.8-2-0.3-2 0.6-2.1 4.2-6.5 0.4-1.3 0.1-1.4 0.4-1.3 0.8-1.3 0.7-0.3 1.8-0.6 0.5-0.3 0-0.6-0.8-2.1 0.4-1.1 1.1-1.4 1.2-1.1 2.2-0.8 0.9-2.6 1.3-0.1 1.6 0.1 1-0.8 0.1-1.3-1.5-1.5-1.6-2.4-1.1-1-3.9-2.9-1.1-1.1-3.8-5.9-1.1-1-1.4-1.3-0.4-1.2 0.3-1.3 1-2.6 0.2-0.5-0.3-5.6 0.1-1.1 0.6-0.9 1.5-0.9 3.6-1.1 1.1-0.6 0.9-2 0.4-8.7 0.8-1.3 1.3-0.1 1.5 0.3 1.5 0 0.4-0.7-0.2-3.2 0.2-1.1 0.4-0.3 1.1-0.3 0.5-0.3 2.6-3 1.2-0.9 4.3-2.4 1.3-1.3-0.3-1.3-0.9-1.4-0.5-1.2 0-2.6 0.1-1.3 0.3-1.2 1.7-1.2 2.2-0.6 4.4-0.6 1.3-1.3-0.3-2.4-1.6-4.6-0.4-2.3-0.4-1-0.7-1-3.5-2.4-0.9-1.2-0.4-2.2 0-2.4-0.2-2.3-1.2-1.8-0.8-2.6-0.1-0.9 0.2-1.1 0.3-0.8 0-0.8-0.7-1-3.5-2.9-1.4-1.9 0.9-1.6 0.9 0 2 0.3 0.7-0.1 0.6-0.8 0-0.8-0.1-0.8 0.2-0.9 0.5-0.8 1.4-1.5 0.5-0.9 0.6-1.6 0.4-1.7-0.2-1.5 0.7-13.3-0.9-5.3-0.2-2.7 0.5-8-0.1-1-0.8-6.6 0-2.9 0.3-1.6 2.1-1.6 0.7-1.6 0.8-1.3 1.5 0.2 0.8-1.9 1-1.4 1.4-0.9 5.4-1.5 0.5-0.6 1.5-3-0.6-0.8-2.2-0.5-0.6-0.7 0.1-1.1 0.6-1 0.9-0.7 2-1.1 0.9-0.8 0.8-1 0.5-1.1 0.4-1.3 0.4-0.6 0.7-0.3-0.4-0.6-1.6-2.9-6.9-12.2-6.8-12.2-6.9-12.2-6.9-12.2-6.8-12.2-6.9-12.2-6.9-12.1-6.9-12.2-0.2-0.4-0.2-0.4-0.3-0.4-0.2-0.4-0.2-0.4-0.3-0.5-0.2-0.4-0.2-0.4 4.9 0.2 2.6-0.2 4.4-1.1 2.2 0.3 2.2 0.6 2.4 0.4 3.7-0.1 5.2 0.6 2.4 0.5 2.3-0.2 1 0.2 4.9 2.1 0.3 0.1 0.6 0 0.3-0.1 1.5 0 3.1 0.8 1.6 0.2 1.7-0.4 1.8-0.7 1.8-0.3 1.9 0.6 1.2 0.5-1.1 1.6-0.8 1.6-0.4 1.7 0.3 2.8 0.2 0.6 0.5 0.4 1.2 0 9.4-1.9 1.8-1 3.4-2.4 2.9-1 1.1-0.2 1.1 0 1.1 0.2 0.9-0.2 2.1-2 1.2-0.6 3.1-0.3 1.2-0.5 1.3-1 1.3-1.3 1.1-1.4 0.9-1.4 1.7-4 0.9-1.3 3.7-4 2.4-4.3 0.9-1.1 1.5-1.1 2.1-1 1.1-0.4 1.1-0.1 1.8 0.3 7.9-0.4 1 0.2 0.9 0.3 1.3 0.7 2.6 2 1.2 0.6 2.3-0.6 1.1-2 0.6-2.4 0.7-2 0.7-0.7 2-1.7 0.8-1 1.3-2.1 0.8-0.9 1-0.9 1.3-0.4 2.3-1.1 2.7-0.9 1.4-0.9 1.1-1.1 0.9-1.2 0.3-0.8 0-0.5 0.2-0.5 0.7-0.6 0.6-0.2 3-0.1 0.7-0.1 0.7-0.2 0.5-0.4 0.1-0.7-0.4-1.4 0.1-0.6 1-0.5 1.5-0.3 2.7-0.1 1.2 0.2 2.6 0.7 1.1 0 0.8-0.5 0.5-0.7 0.4-0.8 0.5-0.5 0.7-0.2 1.3-0.1 0.7-0.1 3.1-1.8 10.6-10.9 8.7-6.7 1.2-0.7 5.4-2.1 0.7-0.4 0.3-0.5 0.2-0.8 0.2-0.7 0.4-0.5 0.7-0.2 7.8-1.4 4 0.3 1.3-0.2 1.3-0.4 2.8-1.6 1-0.4 6.5-1 1.2-0.4 2-1.4 1.2-0.5 3.6-0.3 0.3 0.1 0.2 0.3 0.3 0.2 0.4 0.1 0.3-0.3 0.4-0.8 0.3-0.2 1-0.2 0.4 0.1 0.8 0.3 1.7 1 0.9 0.2 1.2-0.2 3-1.9 1.2-0.3 1.2-0.1 0.9 0.1 2.7 0.6 0.8 0.1 0.8-0.5 1.1-1.1 0.1 0.5 0.3 0.5 0.3 0.6 0.4 0.2 0.7-0.1 0.2-0.6-0.1-0.7 0.1-0.5 0.6-1.3 0.4-0.3 0.4 0.9 0.1 0.6 0.2 0.5 0.3 0.4 0.6 0.2 2.5-1 1-0.1-0.2 1.6-0.3 0.8 0.3 0.2 0.6-0.1 0.5 0.1 0.2 0 0.7-0.3 0.3 0 0.4 0.2 0.6 0.7 0.3 0.3 2 1.3 0.9 0.5 1.2 0.2 0.8 0 0.3-0.3 0.2-0.5 0.3-0.5 0.1-0.2 0.1-0.6 0.1-0.3 0.3-0.2 0.8-0.1 0.3-0.1 0.7-0.9 0.7-1 0.2-0.6 0.3-1 0.4-0.6 3-2.5 0.9-1 0.6-0.1 1.8 0 1.2 0.4 1.8 1.6 0.9 2.1 0.2 0.2 0.9 3 0.6 0.7 0.9 0.8 0.8 0.9 0.4 1-0.3 1.6-1.4 2.7-0.6 1.5-0.2 2.7 0.3 2.7 0.5 2.6 1.3 3.4 0.2 1.5 0.2 2.9 0.1 0.6 0.7 1.6 0.1 0.7-0.2 0.6-1.1 1.8-0.7 3.2-0.8 1.6-2.5 1.2-0.9 1.3-0.7 1.5-0.3 1.2 0.1 0.5 0.1 0.2 0.3 0.3-1.6 2.8-0.9 0.9-1.6 0.4 0 0.4 0.7 1.2 0.2 0.5-0.1 0.3-0.3 0.6-0.1 0.4 0.1 0.6 0.2 0.7 0.2 0.6 0.2 0.2 0.2 0.7-0.4 3.3 0 1 1.1 1.3 1.2 0.7 0.9 1 0.4 1.9-0.1 1.2-0.5 2.5-1 3.1 0.4 0.8 2.6 0.7 1.1 0.8 1 1.1 0.6 1 0.4 5.7 0.2 0.4 0.3 0.4 0.4 0.5 0 0.8-0.3 0.6-0.4 0.4-0.5 0.4-0.6 0.4-1 1.6-0.1 1.2 0.4 1.2 0.2 1.4-0.5 1.2-2.5 2-1 1.1-0.2 1.7 0.8 1 1.1 0.8 0.6 0.9-0.4 1-0.9 0.6-0.6 0.7 0.1 1.6 0.8 1.3 1.4 1 1.2 0.7 0.6 0.4-0.3 0.9-1.1 1.3-0.4 0.8-0.1 0.7 0.1 0.5 2.2 5.8 1.8 1.9 2.3-0.6 1.6 0.9 0.7 0.6 0.5 0.8 0 0.7-0.5 1.2 0 0.9 0.2 0.9 0.4 0.2 0.4 0 0.8 0.3 1.4 1 0.5 0.6-1.6 0.5-0.2 0.6 0.3 1.6-0.1 0.7-0.6 1-0.1 0.7 0 2.4 0.4 0.9 0.9 1 1.2 0.9 0.8 0.3 0.5-0.7 0.4-3.2 0.3-0.9 0.4-0.5 0.9-0.3 0.2 0.6-0.2 1.6 0.9 0.9 1.2 0.5 1.1 0.6 0.6 2.2 0.8 1.5 0.3 0.7 0.1 0.7-0.1 1.3 0 0.7 0.4 1.4 0.3 0.6 0.7 0.4 0.2 0 0.7 0.3 0.4 0.7 0.1 0.8-0.3 0.7-0.9 1.3-0.1 1.2 0.5 1.1 0.7 0.8 1 0.5 1 0.3 2.8 0.1 1.4 0.3 1.4 0.5 1.4 0.2 1.4-0.6 0.8 0.4 1.2 0.3 1.1 0.4 0.5 1 0.3 1.4 0.8 1.2 2.1 2.3-0.5 0.9 0.3 0.8 0.8 0.3 0.8-0.2 0.1-0.6 0.3-1.7 0.2-0.4 1.1-0.2 0.2 0.4 0.3 1.1 0 0.6-0.4 0.8 0 0.5 0.2 0.3 0.5 0.6 0.2 0.2 0.6 0.7 1.6 1 3.2 1.4 0.8 0.1 1.7 0 0.4 0.1 1.1 0.9 1.3 0.7 0.1-0.2 0-0.2 0.1-0.1 1 0.1 0.3 0.1 1.1 1 0.2 0.5 0.1 0.8-0.1 1.5-0.3 1.4-1.2 2.7 0.2 1.2 0.4 0.3 1.4 0.5 0.6 0.3 0.6 0.7 0.8 1.4 0.5 0.7 0.8 0.9 1.1 0.8 1.2 0.6 1.6 0.2 2.6-0.5 1 0.3 0.7 2.1 0.6 0.2 0.6-0.2 0.4-0.1 0.4-0.3 0.7-0.8 0.7-0.2 1.4-0.2 1.1 0.4 1 0.6 1.8 2 0.7 0.2 0.7-0.7 0.9-1.4 1 1.2 4 0.1 1.4 2 1.3-0.2 2-0.8 0.9 0.3 0.6 0.6 0.7 0.5 1.2 0 0.8-0.7 0.4-0.6 0.4-0.6 2.2-2.8 0.1-0.4 1.1-0.1 2-0.7 0.9-0.1 9.5 1.4 0.2 0.1 3.5 1.9 2.8 2.3 1.1 0.5 1.4 0.3 0.9 0 0.7 0.1 0.7 0.3 0.6 0.5 0.5 0.7 0.1 0.7 0.1 0.6 0.2 0.7 0.6 0.5 0.5 0.2 0.5 0.2 0.2 0.8 0.3 0.4 2.5 1.9 1.4 0.4 0.8 0.3 1.9 1.5 0.8 0.3 4.7 0 0.7-0.2 0.3-0.5 0.6-0.6 1.4-1 0.3 0 0.8 0.1 0.3-0.1 0.3-0.3 0.3-0.7 0.3-0.3 1.8-0.8 0.2-0.2 0.7 0.2 1.3 0.6 2 0.5 0.7 0.9 0.5 2.4 0.2 0.5 0.5 0.3 0.2 0.4-0.5 0.8-0.1 0.4 0.1 0.4 0.2 0.3 1.5 1.2 0.7 0.9 0.3 0.6 0.2 1.5 0.5 1.3 0.8 1 0.8 0.6 0.7 0.3 0.6 0 0.6-0.1 0.6-0.4 0.6-0.2 0.3 0.4 0.2 0.7 3.5 4.5 0.2 0.4 0.3 0.3 0.7 0.2 0.7 0 0.5 0.1 0.3 0.4 0.1 0.6 0.3 1.1 0.9 0.9 1.1 0.8 1.3 0.7 0.1-1.4 0.7-0.3 1.1 0 1.3-0.2 0.8-0.5 0.7-0.6 0.8-0.1 1.3 0.8 0.6 0.5 0.4 0.6 0.3 0.6 0.1 1.6 0.3 0.3 5.7 2.5 4.1-0.1 1.3 0.2 0.9 0.6 1.8 2.2 0.2 0.3 0.1 0.7 0.2 0.1 0.9 0 0.2 0 1.2 0.7 0.5 0.2 3.1 0.4 0.8-0.1 0.8-0.7 1.3 0.6 1.1-0.3 1-0.5 2.4-0.6 0.7-0.1 0.7 0.2 1.8 1.2 0.1-1.6 0.6 0.2 1.5 1.8 0.7 0.3 0.6-0.2 0.4 0.1 0.1 1 0 4.5 0.2 1.2 0.7 0.9 1.4 1.1 2.9 3.2 0.9 0.5 0.1 0.2 1 1.6 0.4 0.3 1.4 0.7 1.2 0.7 3.2 3.2 0.6 0.5 1.3 0.6 0.5 0.5 0.3 0.5 1.3 4.6 0.8 0.6 1.5 0.3 1.3-0.3 1.3-0.4 1.3-0.3 1.3 0.6 1.2-0.8 1.5-0.6 1.7-0.4 4.7-0.4 0.2 0.1 0.3 0 1.8 1.7 0.7 0.4 3.1 0.7 3-0.3 2.8-1.1 4.5-2.3 1 0 1 0.5 2.4 0.4 1.3 0.8 0.8 0.3 0.7 0 1.5-0.4 4.4 0.1 0.6-0.4 0.4-1.3 1-0.7 2.8-0.4 0.2-0.2 0.8-0.5 0.9-0.2 0.4 0.7 0 2.7 1.2 1.4 2.9 0.5 3.2 0.2 2.2 0.5 1.2 1.2 0.5 0.3 4.5 1.9 5 4 4.8 3.8 2.3 1.2 1.5 0.4 0.5 0.2 0.2 0.3 0.4 0.8 0.2 0.3 0.6 0.3 5 1.2 1.2 0.7 0.5 1.2 0.1 1.9 0.4 1.8 0.6 1.8 0.6 1.4 0.6 0.6 1.4 1.2 0.1 0.4-0.3 0.7 0.4 0.4 0.7 0.3 0.4 0.3 0.1 0.6 0 0.4-0.6 1.3-0.8 3.1-0.7 1.5-1.2 1-1.6 0.5-0.4 0.3-0.4 0.9-0.2 1.6-0.1 1.5 0.2 0.9 0.9 1.6 0 1.7-0.2 1.8 0 1.9 0.7 1.2 3.6 3 0.5 1.1 1 4.3 2.2 4.8 0.3 2.9-2 0.7 1.1 2.2 3.2 2.2 0.8 1.5 0.2 4.1 0.3 5.6 0.2 5.6 0.3 5.6 0.2 5.6 0.3 4.4-0.4 0.8-7.5 0.1-12.7 0.1 3.5 3.1 4.5 5.5 7.1 8.6 6.1 7.2 0.9 1.5 0.5 1.7 0.9 10.2 1.2 13.8 0.9 10.1 0.4 7.4 0.5 7.7 1.2 3 2.1 0.6 4.5 0.1 12.6 0.5 12.5 0.4 12.6 0.5 12.5 0.4 12.5 0.5 12.6 0.5 12.5 0.4 12.6 0.5 4.7 0.1 1.5-0.1 1.3-0.7 0.5-0.7 1-1.7 0.4-0.3 2.9 0.1 0.7 0.6 0.3 6.6-0.3 1-1.5 1.3-0.1 1.2 1.3 2.5-0.8 2.5-6.6 7.5-1.1 2.1-0.5 2.3 0.2 3 1.4 5.2 0.2 2.7-0.2 0.5-0.5 1.2-0.2 0.6 0 0.9 0.7 3.4 1.1 2.1 0.4 1.2 0.4 4.8 0.3 1.1 0.7 1.2 0.4 1.5 0.1 6.2 0.3 2.6 1.2 2 2.5 1.4 2.1 0.3 0.6 0.2 0.7 0.4 1.1 1 0.7 0.4 0.5 0.1 1.1 0.2 0.6 0.3 0.7 1 1.1 2.3 1 0.8 0.9 0.2 0.8 0.1 0.7 0.2 0.8 0.6 1.8 2 0.8 0.5 2.3 1 0.8 0.5 2.8 2.4 1.9 0.8 2.5 0.6 2.5 0.2 1.9-0.6 1.5-0.2 1.2 0.1 1.4 0.6 0.9 1 0.7 1.5 0.2 1.7-0.1 1.7 0.1 1.1 0 2.7 0.1 1.2 0.5 1.3 0.7 0.9 0.9 0.8 0.9 0.7 1.1 0.4-0.6 2.2 0.2 0.8 1.2 1.5 1 1.7-0.2 1.2-2 0.2 6.1 10.7 3.4 8.5 2.3 4.2 2.6 1.5 1.3 0 1.1 0.2 0.6 0.6-0.1 1.6-4.5 0-1.2 0.3-0.9 0.8-1 3.4-3.1 9.9-3.1 9.9-3.1 10-3.1 9.9-0.8 2.4 2.7 0.2 0.7 0.6 0.3 1.3 0.3 4.2 0.4 3-3.7 0.3-1.1 0.7-1.5 3.2-2.1 4.3-4.5 9.5-4.5 9.5-2 4.3-0.8 1.8-1.8 3.8-1.8 3.8-0.8 1.7-2.3 4.9 0.5 2 5 4.6 5.3 4.9 6.6 6.1-0.6 0.9-0.8 1.1-0.9 1-1.5 0.7-1.6-0.4-1.1-0.1-0.5 0.3-0.1 0.6-0.5 0.6-0.6 0.4-0.8 0.1-1.7 0.7-2 3-1.7 0.7-0.5 0.2-0.8 1.2-0.3 0.4-0.8 0.5-2.8 1-0.1-1.8 1-3.7 0.1-1.5-0.1-2.9 0.2-1.6-0.2-2.2-1.2-4-0.1-2.2 0.2-2.4-0.2-1-0.7-0.8-2.6-1.6-6.2-3.8-6.1-3.8-6.1-3.9-6.2-3.8-6.1-3.8-6.2-3.8-6.1-3.9-6.1-3.8-3.4-2-1.8-1.4-2-1.4-1.3-0.3-5.4 0-12.4 0.2-12.4 0.2-12.4 0.1-12.4 0.2-5.4 0.1-9.9 2.1-22.3 4.9-22.3 4.8-22.3 4.9-22.3 4.8-1.4 0.3-3.1 0.4-3.1 0.5-1.4 0.2-5.9 0.9-1 0.5-0.6 0.8-1.2 3.4-1.8 5.2-1.9 5.1-1.8 5.2-1.9 5.1-0.9 1.8-0.8 1.8-0.4 0.9-0.5 0.9-0.8 1.8-1.1 1.7-1.1 1.7-1.1 1.7-1.1 1.6-2.9 4.3-3 4.3-2.9 4.3-3 4.2-1.3 2-1.5 2.1-2.4 3.7-0.5 1.8 0 6.4 0.1 6.2 0.1 6.8 0.1 10.3-0.2 4.6-2.2 7.3-2.1 7.3-2.3 7.9-2.4 8.2-2.3 7.5-3 10.3-2.4 8-2.9 9.7-1.7 6.3-1.9 6.7-1.5 3.6-0.6-0.2-0.2-0.5 0-0.7-0.3-0.6-0.8-0.8-2.8-2.1-3.1-1.5-1-1-0.5-1.2 0-2.3-0.4-0.9 0.2-0.5 0-0.7-0.4-2.7-0.2-0.7-1-0.2-2.8-0.6-9.8 0.6-20.7-0.1-20.7-0.2-2.6 0.5-1 0.6-3.1 2.7-0.7-0.3-2.7-2.5-1.4-0.6-6.1-0.4-1.8 0.3-0.9 0.5-0.2 0.2-0.1 0.4-0.6 1.6-0.2 1.4-0.3 0.5-0.5 0.6-0.5 0.2-0.4 0.2-0.4 0.2-0.6 1.2-1 4-2 5.2-0.5 0.8-1.4 0.7-0.5 0.6-4.8 12.8-1.6 2.3-3.4 3.3-1 1.7-2.8 10.7-0.1 5.1-0.6 1.4-1.5 5.5 0.1 0.9-1.2-0.6-0.3-3.3-0.8-1 0.5-1.7-0.2-1.9-0.9-1.6-1.4-0.7-0.7-0.6-1.8-3.8-0.6-0.5-0.6-0.2-0.4-0.4-0.2-1.1 0.1-0.8 0.3-1.4 0-0.7 0.3-0.8 0.5-0.6 0.5-0.7 0.1-1.1-3.6-3.6-1-1.3-0.4-1.7-0.2-0.4-1.2-0.8-0.4-0.5 0.1-0.7 0.5-1.4-0.1-0.8-0.9-0.8-1.4-0.9-0.8-1.3 0.6-1.6 0.9-1.1 0.4-1 0-1.1-0.6-1.5-0.6-0.8-1.7-2.2-0.6-0.4-1.4-0.3-1.4-0.8-1.3-0.9-1.4-0.2-0.5-0.2-0.6 0.1-1.2 0.5-0.6 0.1-2.6-0.6-4.6-2.6-12.4-2.9-11.2 0.1-17.5 0.2-3.5-0.4-4.6-0.6-0.6 0-0.3 0.3-0.3 0.3-0.5 0.3-9.2 1-2-0.6-1.9-1.4-8.4-10-1.5-0.8-6-1.1-0.4-0.4-0.8-3.4-2-2.2-2.8-1.5-5.6-1.8-1.2 0.4-3.1 11.7-0.6 6.6-0.3 1-0.4 0.9-0.2 0.1-0.2-0.2-0.9 0.1-0.5 0.4-0.6 0.5-0.4 0.7-0.2 0.7-1.6 1.2-8.8 2.6-7.6 2.1-0.3 0.3-0.2 0.6-0.2 0.4-0.3 0.1-1.1-0.3-1.3-0.2-0.7-0.2-0.7-0.1-0.9 0.4-1.5 1.3-0.9 1.4-0.5 1.7-0.7 5.3-0.5 1.6-0.9 1-0.1 0.6 0.4 2.1-0.1 0.7-0.7 0.5-7.4 2.4-1.8 0.9-1.3 1.4-0.6 1-0.9 0.6-1 0.2-1.4-0.1-1.2 0 0.6 6.7-0.2 1.5-0.7 1.1-5 4-1.9 2.3-3.4 5.7-20.8 4.5-2.4 0.5-4.6 0.3-10.2-0.6-2.1-0.7-0.5-0.5-1.5-2.2-0.3 0-2.5-0.5-0.7-1.1-0.3-1.8 0-5.5 2.1-10.6 0-1.4-2-4-0.6-3.6-0.5-1.5-2.6-4.7-0.4-1.4 0-1.4 1.1-4.5 0-1.4-0.6-1.7-1.9-2.7-0.2-0.7 0.2-0.7 0.8-1.2 0.3-0.6-0.3-1.6-0.8-1.7-1.1-1.5-1.3-0.9-3.2-3.1-1.6-1.5-0.6-0.8-0.3-1.1-0.7-11.6-1.4-5.5-4.1-7.5-0.5-2.4 0.3-17.3-0.9-3.1-13.8-22.9-1-1-1.5-0.4-2.7 0.1-1-0.1-1.4-0.9-1.5-0.9-1.1-3-0.1-9.1 0.5-1.6 1-1.5 4.5-3.9 0.1-1.3-2-1.6-1.7-0.7-3.1-2-6.7-3.3-1.5-1.1-1.4-1.5-1.4-1.9-1-2.2-0.2-2.2 0.7-1.8 1.5-1.2 3.8-1.3-2.6-4.7-0.8-2.3 0.1-2.8 0.3-2-0.2-0.7-2.1-0.4-2-1.3-0.3-1.4 1.2-1.2 8-2.5 2.1-0.2 0.9 0.2 0.7 0.2 0.6-0.1 0.6-0.7 0.3-0.7 0.6-2.4 0-1.4 1.4-3.2 0.2-1-0.1-0.5-0.3-0.4-0.3-0.9 0-2.1-0.1-0.5-0.5-1-0.6-0.4-2.1-0.9-1.1-0.8-2.1-2.2-3.2-2.5-0.4-0.9 0.1-1.3 0.9-1.4 2.7-2.4 1.2-1.3 3.6-5.4 2.9-4.5 1.4-2 1-0.9 2.6-1.2 0.6-0.5-0.5-1.3-1.2-1.4-1.3-1.3-7.1-5.2-2.3-0.9-1.8-1.1-2.4-4.1-1.5-1.6-6.2-5.5-2.1-1.5-3.1-1.1-0.9-0.6-0.7-1-1.6-3.6-1.2-2.2-0.8-1-1-0.6 1.9-2.7 0.6-1.3 0-1.5-0.2-0.8-3.7-7.7 0-0.1 0-0.1 0.5-0.9 0.1-1-0.1-0.9-0.5-0.9-1.5-2.8-0.6-3.4 0-3.6 0.5-3.3 0-1.6-0.5-1.4-2.3-4.1-0.3-1.1 0.2-3.8-0.1-0.6-1-3-0.1-0.6 0-0.7-0.2-1.6-0.7-1.1-2-2.2-0.9-3.2 1.9-2.1 2.4-1.9 0.5-3-0.7-1.1-0.8 0-1 0.4-1.4 0.1-1.1-0.4-1.1-0.4-2-1.3-1.5-0.4-0.5-0.1-0.4-0.5-1.4-1.5-1 0.2-0.8 0.6-0.8 0-1-1.7-0.6-2.5-0.1-5.1-0.4-2.5-1.7-3.2-2.3-2.6-5.3-4.8-1.4-2.1-0.6-2.5-0.3-5.5z"
        />
      </g>
    </g>
  </g>
  <!-- END LAYER: MAP BODY -->


  <!-- ═══════════════════════════════════════════════════════════════════
       3. GRID LAYER — graticule + coordinate labels
       ═══════════════════════════════════════════════════════════════════ -->
  <g id="layer-graticule" opacity="0.7">
    <!-- Horizontal parallels -->
    <line x1="0" y1="60" x2="420" y2="60" stroke="#C8960C" stroke-width="0.5" stroke-dasharray="2,4" />
    <line x1="0" y1="120" x2="420" y2="120" stroke="#C8960C" stroke-width="0.5"
      stroke-dasharray="2,4" />
    <line x1="0" y1="180" x2="420" y2="180" stroke="#C8960C" stroke-width="0.5"
      stroke-dasharray="2,4" />
    <line x1="0" y1="240" x2="420" y2="240" stroke="#C8960C" stroke-width="0.5"
      stroke-dasharray="2,4" />
    <line x1="0" y1="300" x2="420" y2="300" stroke="#C8960C" stroke-width="0.5"
      stroke-dasharray="2,4" />
    <line x1="0" y1="360" x2="420" y2="360" stroke="#C8960C" stroke-width="0.5"
      stroke-dasharray="2,4" />
    <!-- Vertical meridians -->
    <line x1="60" y1="0" x2="60" y2="420" stroke="#C8960C" stroke-width="0.5" stroke-dasharray="2,4" />
    <line x1="120" y1="0" x2="120" y2="420" stroke="#C8960C" stroke-width="0.5"
      stroke-dasharray="2,4" />
    <line x1="180" y1="0" x2="180" y2="420" stroke="#C8960C" stroke-width="0.5"
      stroke-dasharray="2,4" />
    <line x1="240" y1="0" x2="240" y2="420" stroke="#C8960C" stroke-width="0.5"
      stroke-dasharray="2,4" />
    <line x1="300" y1="0" x2="300" y2="420" stroke="#C8960C" stroke-width="0.5"
      stroke-dasharray="2,4" />
    <line x1="360" y1="0" x2="360" y2="420" stroke="#C8960C" stroke-width="0.5"
      stroke-dasharray="2,4" />
  </g>

  <!-- Coordinate labels — slightly more opaque than the grid -->
  <g id="layer-graticule-labels" class="map-label" font-size="5" opacity="1">
    <!-- Latitude labels (western margin) -->
    <text x="5" y="63">18°S</text>
    <text x="5" y="123">17°S</text>
    <text x="5" y="183">16°S</text>
    <text x="5" y="243">15°S</text>
    <text x="5" y="303">14°S</text>
    <text x="5" y="363">13°S</text>
    <!-- Longitude labels (northern margin) -->
    <text x="62" y="10">69°W</text>
    <text x="122" y="10">68°W</text>
    <text x="182" y="10">67°W</text>
    <text x="242" y="10">66°W</text>
    <text x="302" y="10">65°W</text>
    <text x="362" y="10">64°W</text>
  </g>

  <!-- Corner registration marks (cartographic convention) -->
  <g id="layer-corner-marks" stroke="#C8960C" stroke-width="0.6" opacity="0.38">
    <path d="M40,40 v6 M40,40 h6" />
    <path d="M380,40 v6 M380,40 h-6" />
    <path d="M40,380 v-6 M40,380 h6" />
    <path d="M380,380 v-6 M380,380 h-6" />
  </g>
  <!-- END LAYER: GRID -->

  <!-- ═══════════════════════════════════════════════════════════════════
       5. MARKER LAYER
       ═══════════════════════════════════════════════════════════════════ -->
  <g id="layer-markers">
    <g id="marker-la-paz" transform="translate(155,165)">

      <!-- Halo: ambient radial glow behind the marker -->
      <circle r="24" fill="url(#grad-lpaz-halo)" opacity="0.85" />

      <!-- Pulse rings: outer → mid → inner, progressively tighter -->
      <circle class="lpaz-pulse-outer" r="18"
        fill="none" stroke="#C8960C" stroke-width="0.6" opacity="0.70" />
      <circle class="lpaz-pulse-mid" r="12"
        fill="none" stroke="#C8960C" stroke-width="0.8" opacity="0.80" />
      <circle class="lpaz-pulse-inner" r="7"
        fill="none" stroke="rgba(255,255,255,0.65)" stroke-width="0.4" opacity="0.60" />

      <!-- Marker body: dark fill with gold stroke + glow filter -->
      <circle r="5.5"
        fill="rgba(13,27,42,0.96)"
        stroke="#C8960C" stroke-width="1.5"
        filter="url(#filter-glow-gold)" />

      <!-- Inner dot — bright white, breathing animation -->
      <circle class="lpaz-dot" r="2.2" fill="#ffffff" />
      <!-- Accent pip -->
      <circle r="0.9" fill="rgba(200,150,12,0.95)" />
    </g>

    <!-- Bolivia label + subtitle -->
    <g id="label-la-paz" transform="translate(200,195)" class="map-label" text-anchor="middle">
      <text y="-30" font-size="9" font-weight="bold" letter-spacing="0.10em">BOLIVIA</text>
    </g>
  </g>
  <!-- END LAYER: MARKERS -->

  <!-- ═══════════════════════════════════════════════════════════════════
       6. PANELS LAYER
       ═══════════════════════════════════════════════════════════════════ -->
  <g id="layer-panels" class="map-label">

    <!-- ── Scale bar ──────────────────────────────────────────────────── -->
    <g id="panel-scale" transform="translate(50,265)" filter="url(#filter-panel-shadow)">

      <rect x="0" y="0" width="124" height="35" rx="2.5"
        fill="rgba(13,27,42,0.93)" stroke="#C8960C" stroke-width="0.5" stroke-opacity="0.85" />

      <text x="6" y="9" font-size="5" font-weight="bold"
        class="map-label-dim" letter-spacing="0.18em">ESCALA GRÁFICA</text>

      <!-- Alternating bar blocks -->
      <g transform="translate(6,15)">
        <rect x="0" y="0" width="15" height="5" fill="#C8960C" />
        <rect x="15" y="0" width="15" height="5" fill="rgba(200,150,12,0.22)" stroke="#C8960C"
          stroke-width="0.3" />
        <rect x="30" y="0" width="15" height="5" fill="#C8960C" />
        <rect x="45" y="0" width="15" height="5" fill="rgba(200,150,12,0.22)" stroke="#C8960C"
          stroke-width="0.3" />
        <rect x="60" y="0" width="15" height="5" fill="#C8960C" />
        <rect x="75" y="0" width="15" height="5" fill="rgba(200,150,12,0.22)" stroke="#C8960C"
          stroke-width="0.3" />
        <rect x="90" y="0" width="15" height="5" fill="#C8960C" />
      </g>

      <!-- Km labels -->
      <g font-size="4.5" text-anchor="middle" opacity="0.88">
        <text x="6" y="28">0</text>
        <text x="51" y="28">50</text>
        <text x="111" y="28">100 km</text>
      </g>
    </g>

    <!-- ── Projection info panel ──────────────────────────────────────── -->
    <g id="panel-projection" transform="translate(252,265)" filter="url(#filter-panel-shadow)">

      <rect x="0" y="0" width="150" height="35" rx="2.5"
        fill="rgba(13,27,42,0.93)" stroke="#C8960C" stroke-width="0.5" stroke-opacity="0.85" />

      <text x="6" y="9" font-size="5" font-weight="bold"
        class="map-label-dim" letter-spacing="0.18em">PROYECCIÓN</text>

      <!-- Datum / CRS -->
      <text x="6" y="19" font-size="6.5" font-weight="bold" letter-spacing="0.05em">WGS84</text>
      <text x="6" y="27" font-size="5" letter-spacing="0.05em" opacity="0.78">UTM Zone 19S</text>

      <!-- Vertical divider -->
      <line x1="78" y1="12" x2="78" y2="30" stroke="#C8960C" stroke-width="0.3" opacity="0.30" />

      <!-- EPSG code -->
      <text x="84" y="19" font-size="6.5" font-weight="bold" letter-spacing="0.05em">EPSG:32719</text>
      <text x="84" y="27" font-size="5" letter-spacing="0.05em" opacity="0.78">Datum Global</text>
    </g>

  </g>
  <!-- END LAYER: PANELS -->


  <!-- ═══════════════════════════════════════════════════════════════════
       7. COMPASS LAYER
       Full 8-point rose with animated outer dashed ring.
       Positioned at (345, 40) — top-right, away from the main map body.
       ═══════════════════════════════════════════════════════════════════ -->
  <g id="layer-compass" transform="translate(290,75) scale(.85)" filter="url(#filter-panel-shadow)">

    <!-- Outer disc: dark background -->
    <circle r="32" fill="rgba(13,27,42,0.3)" stroke="#C8960C" stroke-width="0.8"
      stroke-opacity="0.65" />

    <!-- Animated dashed outer ring (slow rotation) -->
    <circle class="compass-ring-animated"
      r="26" fill="none"
      stroke="#C8960C" stroke-width="0.25" stroke-opacity="0.22"
      stroke-dasharray="1.2,2.2" />

    <!-- Ordinal (45°) tick marks — outer ring -->
    <g id="compass-ticks-ordinal-outer"
      stroke="#C8960C" stroke-width="0.4" opacity="0.42">
      <line x1="0" y1="-30" x2="0" y2="-32" />
      <line x1="0" y1="30" x2="0" y2="32" />
      <line x1="-30" y1="0" x2="-32" y2="0" />
      <line x1="30" y1="0" x2="32" y2="0" />
      <line x1="21.2" y1="-21.2" x2="22.6" y2="-22.6" />
      <line x1="21.2" y1="21.2" x2="22.6" y2="22.6" />
      <line x1="-21.2" y1="21.2" x2="-22.6" y2="22.6" />
      <line x1="-21.2" y1="-21.2" x2="-22.6" y2="-22.6" />
    </g>

    <!-- Cardinal (N/S/E/W) tick marks — inner + outer -->
    <g id="compass-ticks-cardinal"
      stroke="#C8960C" stroke-width="0.55" opacity="0.72">
      <line x1="0" y1="-22" x2="0" y2="-28" />
      <line x1="0" y1="22" x2="0" y2="28" />
      <line x1="-22" y1="0" x2="-28" y2="0" />
      <line x1="22" y1="0" x2="28" y2="0" />
    </g>

    <!-- Fine subdivision ticks (22.5° intervals) -->
    <g id="compass-ticks-fine"
      stroke="#C8960C" stroke-width="0.25" opacity="0.36">
      <line x1="0" y1="-12" x2="0" y2="-20" />
      <line x1="0" y1="12" x2="0" y2="20" />
      <line x1="-12" y1="0" x2="-20" y2="0" />
      <line x1="12" y1="0" x2="20" y2="0" />
      <line x1="8.5" y1="-8.5" x2="14.1" y2="-14.1" />
      <line x1="8.5" y1="8.5" x2="14.1" y2="14.1" />
      <line x1="-8.5" y1="8.5" x2="-14.1" y2="14.1" />
      <line x1="-8.5" y1="-8.5" x2="-14.1" y2="-14.1" />
    </g>

    <!-- Compass arrow: north point (bright gold + glow) -->
    <polygon id="compass-arrow-north"
      points="0,-22 5,4 0,0"
      fill="#C8960C"
      filter="url(#filter-glow-gold)" />
    <!-- Complementary north shading -->
    <polygon points="0,-22 -5,4 0,0" fill="rgba(200,150,12,0.32)" />

    <!-- South arrow (subdued) -->
    <polygon points="0,22  4,3  0,0" fill="rgba(200,150,12,0.42)" />
    <polygon points="0,22 -4,3  0,0" fill="rgba(200,150,12,0.18)" />

    <!-- East / West lateral stubs (very subtle) -->
    <polygon points="-22,0  4, 4 0,0" fill="rgba(200,150,12,0.22)" />
    <polygon points=" 22,0 -4, 4 0,0" fill="rgba(200,150,12,0.16)" />

    <!-- Centre hub -->
    <circle r="3.8" fill="rgba(13,27,42,0.98)" stroke="#C8960C" stroke-width="0.75" />
    <circle r="1.2" fill="#C8960C" />

    <!-- Cardinal labels -->
    <g id="compass-labels-cardinal" class="map-label" text-anchor="middle">
      <text x="0" y="-36" font-size="10" font-weight="bold" letter-spacing="0.08em">N</text>
      <text x="0" y="42" font-size="10" letter-spacing="0.05em" opacity="0.72">S</text>
      <text x="40" y="2.5" font-size="10" letter-spacing="0.05em" opacity="0.72">E</text>
      <text x="-40" y="2.5" font-size="10" letter-spacing="0.05em" opacity="0.72">W</text>
    </g>

    <!-- Inter-cardinal labels (NE/SE/SW/NW) — subtle -->
    <g id="compass-labels-intercardinal" class="map-label" text-anchor="middle" opacity="0.48">
      <text x="17" y="-14" font-size="5">NE</text>
      <text x="17" y="20" font-size="5">SE</text>
      <text x="-17" y="20" font-size="5">SW</text>
      <text x="-17" y="-14" font-size="5">NW</text>
    </g>

  </g>
  <!-- END LAYER: COMPASS -->


  <!-- ════════════════════════════════════════════════════════════════
     HUD PANEL · ELABORADO POR
     ════════════════════════════════════════════════════════════════ -->
  <g id="panel-author" transform="translate(150,338)"
    filter="url(#filter-panel-shadow)">

    <!-- Main Panel -->
    <rect x="0" y="0"
      width="170"
      height="45"
      rx="3"
      fill="rgba(13,27,42,0)"
    />


    <!-- Decorative HUD Lines -->
    <g opacity="0.35"
      stroke="#C8960C"
      stroke-width="0.35">

      <line x1="12" y1="15" x2="60" y2="15" />
      <line x1="110" y1="15" x2="158" y2="15" />

    </g>

    <!-- GIS / Cartography Icon -->
    <g transform="translate(12,19)"
      stroke="#C8960C"
      stroke-width="0.7"
      fill="none">

      <!-- Coordinate Grid -->
      <rect x="0" y="0" width="14" height="14" />

      <line x1="4.7" y1="0" x2="4.7" y2="14" />
      <line x1="9.3" y1="0" x2="9.3" y2="14" />

      <line x1="0" y1="4.7" x2="14" y2="4.7" />
      <line x1="0" y1="9.3" x2="14" y2="9.3" />

      <!-- Survey Point -->
      <circle cx="9.3" cy="4.7" r="1.2"
        fill="#C8960C" />

    </g>

    <!-- Section Title -->
    <text x="34"
      y="14"
      font-size="6.5"
      letter-spacing="0.22em"
      class="map-label map-label-dim"
      font-weight="bold">
      ELABORADO POR
    </text>

    <!-- Main Brand -->
    <text x="34"
      y="29"
      font-size="9"
      font-weight="bold"
      fill="#C8960C"
      letter-spacing="0.12em">
      LEXGEOCAT - 170220
    </text>


  </g>
</svg>